<svg width="64" height="70" viewBox="0 0 64 70" fill="none" xmlns="http://www.w3.org/2000/svg">
<path d="M0.229004 0V70H63.0734V0H0.229004Z" stroke="white" stroke-width="3"/>
<path fill-rule="evenodd" clip-rule="evenodd" d="M47.3151 36.7089C47.3151 45.3682 40.2632 52.42 31.6558 52.42C22.9966 52.42 15.9966 45.3682 15.9966 36.7089C15.9966 28.0497 23.0484 20.9978 31.6558 20.9978C40.3151 20.9978 47.3151 28.0497 47.3151 36.7089Z" fill="white"/>
<mask id="mask0_2356_161" style="mask-type:luminance" maskUnits="userSpaceOnUse" x="15" y="20" width="33" height="33">
<path d="M15.8315 20.998H47.513V52.6795H15.8315V20.998Z" fill="white"/>
</mask>
<g mask="url(#mask0_2356_161)">
<path d="M41.4476 36.7114C41.4476 44.8003 37.0402 51.3855 31.6476 51.3855C26.2551 51.3855 21.8477 44.8003 21.8477 36.7114C21.8477 28.6225 26.2551 22.0374 31.6476 22.0374C37.0402 22.0892 41.4476 28.6225 41.4476 36.7114Z" stroke="#BC2112" stroke-width="1.0959" stroke-miterlimit="10" stroke-linecap="round" stroke-linejoin="round"/>
</g>
<mask id="mask1_2356_161" style="mask-type:luminance" maskUnits="userSpaceOnUse" x="15" y="20" width="33" height="33">
<path d="M15.8315 20.998H47.513V52.6795H15.8315V20.998Z" fill="white"/>
</mask>
<g mask="url(#mask1_2356_161)">
<path d="M46.2723 36.7114C46.2723 44.8003 39.7389 51.3855 31.6501 51.3855C23.5612 51.3855 17.0278 44.8003 17.0278 36.7114C17.0278 28.6225 23.5612 22.0374 31.6501 22.0374C39.6871 22.0892 46.2723 28.6225 46.2723 36.7114Z" stroke="#BC2112" stroke-width="1.1298" stroke-miterlimit="10" stroke-linecap="round" stroke-linejoin="round"/>
</g>
<mask id="mask2_2356_161" style="mask-type:luminance" maskUnits="userSpaceOnUse" x="15" y="20" width="33" height="33">
<path d="M15.8315 20.998H47.513V52.6795H15.8315V20.998Z" fill="white"/>
</mask>
<g mask="url(#mask2_2356_161)">
<path d="M17.0278 36.7129H46.1686" stroke="#BC2112" stroke-width="1.1299" stroke-miterlimit="10" stroke-linecap="round" stroke-linejoin="round"/>
</g>
<mask id="mask3_2356_161" style="mask-type:luminance" maskUnits="userSpaceOnUse" x="15" y="20" width="33" height="33">
<path d="M15.8315 20.998H47.513V52.6795H15.8315V20.998Z" fill="white"/>
</mask>
<g mask="url(#mask3_2356_161)">
<path d="M31.6558 22.0886V51.3849" stroke="#BC2112" stroke-width="1.1328" stroke-miterlimit="10" stroke-linecap="round" stroke-linejoin="round"/>
</g>
<mask id="mask4_2356_161" style="mask-type:luminance" maskUnits="userSpaceOnUse" x="15" y="20" width="33" height="33">
<path d="M15.8315 20.998H47.513V52.6795H15.8315V20.998Z" fill="white"/>
</mask>
<g mask="url(#mask4_2356_161)">
<path d="M20.1387 27.6394H43.1091" stroke="#BC2112" stroke-width="0.8926" stroke-miterlimit="10" stroke-linecap="round" stroke-linejoin="round"/>
</g>
<mask id="mask5_2356_161" style="mask-type:luminance" maskUnits="userSpaceOnUse" x="15" y="20" width="33" height="33">
<path d="M15.8315 20.998H47.513V52.6795H15.8315V20.998Z" fill="white"/>
</mask>
<g mask="url(#mask5_2356_161)">
<path d="M20.2407 45.8911H43.1592" stroke="#BC2112" stroke-width="0.8926" stroke-miterlimit="10" stroke-linecap="round" stroke-linejoin="round"/>
</g>
<mask id="mask6_2356_161" style="mask-type:luminance" maskUnits="userSpaceOnUse" x="15" y="20" width="33" height="33">
<path d="M15.8315 20.998H47.513V52.6795H15.8315V20.998Z" fill="white"/>
</mask>
<g mask="url(#mask6_2356_161)">
<path d="M20.5016 31.4199C21.6424 31.4199 22.7831 31.4199 23.872 31.4199H24.3905V31.9384H24.0275C23.0942 31.9384 23.1979 32.9755 23.1979 34.1681C23.1979 34.5829 23.1461 38.4718 23.1979 38.4718L29.7312 31.4199H31.2349C31.2349 31.8866 31.2349 32.3014 31.2349 33.1829V39.457C31.2349 40.857 30.9757 42.3607 32.0646 42.3607H32.4275V42.8792H31.8572C30.5609 42.8792 29.2646 42.8792 27.9164 42.8792V42.3607H28.3312C29.1609 42.3607 29.0572 40.5977 29.0572 39.457V34.9977C29.0572 34.9977 22.6794 42.0495 22.0053 42.8273H21.072C21.072 40.131 21.072 36.8644 21.072 34.1162C21.072 32.9755 21.1757 31.9384 20.2424 31.9384H19.8794V31.4199H20.5016Z" stroke="#BC2112" stroke-width="2.2573" stroke-miterlimit="22.9256"/>
</g>
<path d="M20.5016 31.4197C21.6424 31.4197 22.7831 31.4197 23.872 31.4197H24.3905V31.9382H24.0275C23.0942 31.9382 23.1979 32.9752 23.1979 34.1678C23.1979 34.5826 23.1461 38.4715 23.1979 38.4715L29.7312 31.4197H31.2349C31.2349 31.8863 31.2349 32.3012 31.2349 33.1826V39.4567C31.2349 40.8567 30.9757 42.3604 32.0646 42.3604H32.4275V42.8789H31.8572C30.5609 42.8789 29.2646 42.8789 27.9164 42.8789V42.3604H28.3312C29.1609 42.3604 29.0572 40.5974 29.0572 39.4567V34.9975C29.0572 34.9975 22.6794 42.0493 22.0053 42.8271H21.072C21.072 40.1308 21.072 36.8641 21.072 34.116C21.072 32.9752 21.1757 31.9382 20.2424 31.9382H19.8794V31.4197H20.5016Z" fill="white"/>
<mask id="mask7_2356_161" style="mask-type:luminance" maskUnits="userSpaceOnUse" x="15" y="20" width="33" height="33">
<path d="M15.8315 20.998H47.513V52.6795H15.8315V20.998Z" fill="white"/>
</mask>
<g mask="url(#mask7_2356_161)">
<path d="M33.9302 33.8089C33.8784 35.4682 35.3821 35.157 36.471 35.157C37.5598 35.157 37.7673 35.157 39.5302 35.157C39.3747 32.0459 38.1302 27.483 32.6858 27.483C29.9376 27.483 27.0339 28.883 26.671 31.9941H25.3747L24.9598 27.0682L25.2191 26.6533C25.3747 26.6533 25.7376 26.7052 25.8932 26.7052C26.9821 26.8089 27.8117 26.9645 28.071 26.9645C29.2636 26.9645 31.8561 26.2385 33.1524 26.2385C36.471 26.2385 43.6784 28.0015 43.6784 36.92C43.6784 44.0237 38.8043 47.4978 32.6858 47.4978C28.9006 47.4978 26.1006 45.5793 24.7524 42.4163H26.8784C28.7969 45.32 30.3006 46.2015 32.4784 46.2015C35.8487 46.2015 39.271 43.2459 39.5302 37.1274C37.5598 37.1274 37.3524 37.1274 36.2635 37.1274C35.1747 37.1274 33.9302 36.92 33.9302 38.4756H33.2561C33.308 36.92 33.308 36.7645 33.308 36.2978C33.308 35.6237 33.3598 35.4163 33.2561 33.9126H33.9302V33.8089Z" stroke="#BC2112" stroke-width="2.2597" stroke-miterlimit="22.9256"/>
</g>
<path d="M33.9307 33.8089C33.8789 35.4682 35.3826 35.157 36.4714 35.157C37.5603 35.157 37.7677 35.157 39.5307 35.157C39.3751 32.0459 38.1307 27.483 32.6863 27.483C29.9381 27.483 27.0344 28.883 26.6714 31.9941H25.3752L24.9603 27.0682L25.2196 26.6533C25.3752 26.6533 25.7381 26.7052 25.8937 26.7052C26.9826 26.8089 27.8122 26.9645 28.0714 26.9645C29.264 26.9645 31.8566 26.2385 33.1529 26.2385C36.4714 26.2385 43.6789 28.0015 43.6789 36.92C43.6789 44.0237 38.8048 47.4978 32.6863 47.4978C28.9011 47.4978 26.1011 45.5793 24.7529 42.4163H26.8789C28.7974 45.32 30.3011 46.2015 32.4789 46.2015C35.8492 46.2015 39.2714 43.2459 39.5307 37.1274C37.5603 37.1274 37.3529 37.1274 36.264 37.1274C35.1751 37.1274 33.9307 36.92 33.9307 38.4756H33.2566C33.3085 36.92 33.3085 36.7645 33.3085 36.2978C33.3085 35.6237 33.3603 35.4163 33.2566 33.9126H33.9307V33.8089Z" fill="white"/>
<path d="M27.145 42.1538H27.7672" stroke="#BC2112" stroke-width="1.5065" stroke-miterlimit="22.9256"/>
<path d="M12.2086 3.99048V5.64974C12.2086 6.53122 12.2086 7.4127 12.1568 8.19048H12.2086C12.5197 7.5164 12.8827 6.79048 13.1938 6.22011L14.3864 4.04233H15.6827V9.64233H14.4901V7.98307C14.4901 7.10159 14.4901 6.37566 14.5938 5.64974C14.3345 6.32381 13.9716 7.04974 13.6605 7.62011L12.5197 9.64233H11.0679V3.99048H12.2086Z" fill="white"/>
<path d="M18.1702 3.99048V6.11641H20.2443V3.99048H21.4887V9.59048H20.2443V7.25715H18.1702V9.59048H16.9258V3.99048H18.1702Z" fill="white"/>
<path d="M26.9372 9.43551C26.7298 9.53921 26.1594 9.69476 25.4853 9.69476C23.5668 9.69476 22.5298 8.50217 22.5298 6.89476C22.5298 4.97625 23.8779 3.93921 25.589 3.93921C26.2631 3.93921 26.7298 4.09476 26.989 4.19847L26.7298 5.18365C26.4705 5.07995 26.1076 4.97625 25.6927 4.97625C24.7076 4.97625 23.9298 5.59847 23.9298 6.84291C23.9298 7.98365 24.6039 8.65773 25.7446 8.65773C26.1076 8.65773 26.5742 8.55402 26.7816 8.45032L26.9372 9.43551Z" fill="white"/>
<path d="M29.1619 5.02922H27.6582V3.99219H31.9619V5.02922H30.4582V9.54034H29.2138V5.02922H29.1619Z" fill="white"/>
<path d="M33.9343 3.99219V5.65145C33.9343 6.53293 33.9343 7.41441 33.8824 8.19219H33.9343C34.2454 7.51811 34.6084 6.79219 34.9195 6.22182L36.1121 4.04404H37.4084V9.64404H36.2676V7.98478C36.2676 7.1033 36.2676 6.37737 36.3713 5.65145C36.1121 6.32552 35.7491 7.05145 35.438 7.62181L34.1936 9.59218H32.7417V3.99219H33.9343Z" fill="white"/>
<path d="M39.74 5.02922H38.2363V3.99219H42.54V5.02922H41.0363V9.54034H39.7919V5.02922H39.74Z" fill="white"/>
<path d="M44.5063 3.99106L45.3359 5.96143C45.4914 6.37625 45.5951 6.68736 45.7507 7.05032C45.8026 6.79106 45.9063 6.4281 46.0618 5.96143L46.684 3.99106H48.0322L46.9951 6.68736C46.6322 7.56884 46.3211 8.39847 45.9063 8.91699C45.5433 9.38365 45.0766 9.64291 44.4026 9.64291C44.0914 9.64291 43.9359 9.59106 43.7803 9.53921L43.884 8.50217C43.9877 8.50217 44.0914 8.55402 44.2988 8.55402C44.7137 8.55402 44.9729 8.29476 45.0766 8.0355C45.1285 7.9318 45.0766 7.87995 45.0766 7.77624L43.21 3.93921H44.5063V3.99106Z" fill="white"/>
<path d="M49.9515 5.02752H48.4478V3.99048H52.7515V5.02752H51.2478V9.53863H50.0033V5.02752H49.9515Z" fill="white"/>
<path d="M6.40396 14.5705H8.78914C8.68544 13.8446 8.16692 13.2223 7.23359 13.2223C6.81877 13.2223 6.40396 13.326 6.09285 13.4297L5.83359 12.4964C6.19655 12.3409 6.71507 12.1853 7.33729 12.1853C9.30766 12.1853 10.1373 13.5335 10.1373 15.089C10.1373 16.9557 8.841 17.9927 7.23359 17.9927C6.66322 17.9927 6.09285 17.8372 5.78174 17.7334L5.98915 16.7483C6.30026 16.852 6.71507 16.9557 7.12988 16.9557C8.06322 16.9557 8.68544 16.3853 8.78914 15.5557H6.40396V14.5705Z" fill="white"/>
<path d="M12.4168 12.29V14.6234H12.5205L14.0761 12.29H15.6316L13.6613 14.7789C14.3872 14.9863 14.6983 15.453 14.9575 16.1271C15.165 16.7493 15.3205 17.3197 15.5798 17.89H14.2316C14.0242 17.5271 13.9205 17.0604 13.8168 16.6456C13.6094 16.0234 13.3501 15.5567 12.6761 15.5567H12.4168V17.89H11.1724V12.29H12.4168Z" fill="white"/>
<path d="M21.3276 15.0372C21.3276 16.852 20.2388 17.9927 18.5795 17.9927C16.9202 17.9927 15.9351 16.7483 15.9351 15.1409C15.9351 13.4816 17.0239 12.1853 18.6832 12.1853C20.3943 12.1853 21.3276 13.4816 21.3276 15.0372ZM17.2832 15.089C17.2832 16.1779 17.8017 16.9557 18.6314 16.9557C19.461 16.9557 19.9795 16.126 19.9795 15.0372C19.9795 14.052 19.5128 13.1705 18.6314 13.1705C17.8017 13.1705 17.2832 14.0001 17.2832 15.089Z" fill="white"/>
<path d="M23.6107 12.29V14.416H25.6847V12.29H26.9292V17.89H25.6847V15.5567H23.6107V17.89H22.3662V12.29H23.6107Z" fill="white"/>
<path d="M33.3584 15.0372C33.3584 16.852 32.2695 17.9927 30.6103 17.9927C28.951 17.9409 27.9658 16.6964 27.9658 15.1409C27.9658 13.4816 29.0547 12.1853 30.714 12.1853C32.4251 12.1853 33.3584 13.4816 33.3584 15.0372ZM29.314 15.089C29.314 16.1779 29.8325 16.9557 30.6621 16.9557C31.4917 16.9557 32.0103 16.126 32.0103 15.0372C32.0103 14.052 31.5436 13.1705 30.6621 13.1705C29.7806 13.1705 29.314 14.0001 29.314 15.089Z" fill="white"/>
<path d="M39.0611 15.7123C39.0611 15.0382 39.0092 14.2086 39.0092 13.4308C38.8537 14.1567 38.5944 14.9345 38.387 15.6086L37.7129 17.7863H36.7278L36.1055 15.6086C35.8981 14.9345 35.7426 14.1567 35.587 13.4308C35.5352 14.2086 35.5352 15.0382 35.4833 15.7641L35.3796 17.89H34.187L34.55 12.29H36.2611L36.8315 14.1567C36.987 14.7789 37.1944 15.5049 37.2981 16.1789C37.4537 15.5567 37.6611 14.7789 37.8166 14.1567L38.4389 12.29H40.0981L40.4092 17.89H39.1648L39.0611 15.7123Z" fill="white"/>
<path d="M42.6924 12.29V13.9493C42.6924 14.8308 42.6924 15.7123 42.6406 16.49H42.6924C43.0035 15.816 43.3665 15.09 43.6776 14.5197L44.8702 12.3419H46.1665V17.9419H45.0257V16.2826C45.0257 15.4011 45.0257 14.6752 45.1294 13.9493C44.8702 14.6234 44.5072 15.3493 44.1961 15.9197L43.0554 17.9419H41.6035V12.29H42.6924Z" fill="white"/>
<path d="M48.6585 12.29V14.6234H48.7622L50.3178 12.29H51.8733L49.903 14.7789C50.6289 14.9863 50.94 15.453 51.1992 16.1271C51.4067 16.7493 51.5622 17.3197 51.8215 17.89H50.4733C50.2659 17.5271 50.1622 17.0604 50.0585 16.6456C49.8511 16.0234 49.5918 15.5567 48.9178 15.5567H48.6585V17.89H47.4141V12.29H48.6585Z" fill="white"/>
<path d="M53.7368 12.29V13.9493C53.7368 14.8308 53.7368 15.7123 53.685 16.49H53.7368C54.0479 15.816 54.4109 15.09 54.722 14.5197L55.9146 12.3419H57.2109V17.9419H56.0702V16.2826C56.0702 15.4011 56.0702 14.6752 56.1739 13.9493C55.9146 14.6234 55.5517 15.3493 55.2405 15.9197L54.0998 17.9419H52.6479V12.29H53.7368Z" fill="white"/>
<path d="M12.1064 55.791C12.3657 55.7391 12.7805 55.6873 13.3509 55.6873C13.9213 55.6873 14.3361 55.791 14.5953 55.9984C14.8546 56.2058 15.0101 56.5169 15.0101 56.9317C15.0101 57.3465 14.8546 57.6576 14.6472 57.865C14.3361 58.1761 13.8694 58.2798 13.3509 58.2798C13.2472 58.2798 13.1435 58.2798 13.0398 58.2798V59.7317H12.1583V55.791H12.1064ZM12.9879 57.6058C13.0398 57.6058 13.1435 57.6058 13.299 57.6058C13.7657 57.6058 14.0768 57.3465 14.0768 56.9317C14.0768 56.5687 13.8176 56.3613 13.3509 56.3613C13.1435 56.3613 13.0398 56.3613 12.9879 56.4132V57.6058Z" fill="white"/>
<path d="M19.4147 57.6582C19.4147 58.9545 18.6369 59.7841 17.4443 59.7841C16.2517 59.7841 15.5776 58.9026 15.5776 57.7619C15.5776 56.5693 16.3554 55.636 17.548 55.636C18.7406 55.636 19.4147 56.5693 19.4147 57.6582ZM16.511 57.7619C16.511 58.5397 16.8739 59.1101 17.4962 59.1101C18.1184 59.1101 18.4813 58.5397 18.4813 57.7619C18.4813 57.036 18.1184 56.4138 17.4962 56.4138C16.8221 56.3619 16.511 56.9323 16.511 57.7619Z" fill="white"/>
<path d="M23.0966 59.6286C22.941 59.7323 22.578 59.7841 22.0595 59.7841C20.6595 59.7841 19.9336 58.9026 19.9336 57.7619C19.9336 56.4138 20.9188 55.636 22.1114 55.636C22.578 55.636 22.941 55.7397 23.0966 55.7915L22.8891 56.5175C22.6817 56.4656 22.4225 56.3619 22.1114 56.3619C21.3854 56.3619 20.8151 56.7767 20.8151 57.7101C20.8151 58.5397 21.2817 59.0064 22.1114 59.0064C22.3706 59.0064 22.6817 58.9545 22.8891 58.8508L23.0966 59.6286Z" fill="white"/>
<path d="M26.6776 59.6286C26.5221 59.7323 26.1591 59.7841 25.6406 59.7841C24.2406 59.7841 23.5146 58.9026 23.5146 57.7619C23.5146 56.4138 24.4998 55.636 25.6924 55.636C26.1591 55.636 26.5221 55.7397 26.6776 55.7915L26.4702 56.5175C26.2628 56.4656 26.0035 56.3619 25.6924 56.3619C24.9665 56.3619 24.3961 56.7767 24.3961 57.7101C24.3961 58.5397 24.8628 59.0064 25.6924 59.0064C25.9517 59.0064 26.2628 58.9545 26.4702 58.8508L26.6776 59.6286Z" fill="white"/>
<path d="M28.2828 55.7391V56.9317C28.2828 57.5539 28.2828 58.228 28.2309 58.7465C28.4383 58.2799 28.6976 57.7613 28.9568 57.2947L29.8383 55.7391H30.7716V59.7836H29.942V58.591C29.942 57.9687 29.942 57.3984 29.9939 56.8799C29.7865 57.3465 29.5272 57.865 29.3198 58.3317L28.4902 59.7317H27.4531V55.6873H28.2828V55.7391Z" fill="white"/>
<path d="M32.5894 55.741V56.9335C32.5894 57.5558 32.5894 58.2298 32.5375 58.7484C32.7449 58.2817 33.0042 57.7632 33.2635 57.2965L34.1449 55.741H35.0783V59.7854H34.2486V58.5928C34.2486 57.9706 34.2486 57.4002 34.3005 56.8817C34.0931 57.3484 33.8338 57.8669 33.6264 58.3335L32.7968 59.7854H31.7598V55.741H32.5894ZM33.1598 54.8076C33.1598 55.015 33.2116 55.1706 33.419 55.1706C33.6264 55.1706 33.6783 55.015 33.6783 54.8076H34.3005C34.2486 55.3261 33.9375 55.5335 33.419 55.5335C32.9005 55.5335 32.5894 55.3261 32.5375 54.8076H33.1598Z" fill="white"/>
<path d="M39.0184 59.6286C38.8629 59.7323 38.4999 59.7841 37.9814 59.7841C36.5814 59.7841 35.8555 58.9026 35.8555 57.7619C35.8555 56.4138 36.8407 55.636 38.0332 55.636C38.4999 55.636 38.8629 55.7397 39.0184 55.7915L38.811 56.5175C38.6036 56.4656 38.3444 56.3619 38.0332 56.3619C37.3073 56.3619 36.737 56.7767 36.737 57.7101C36.737 58.5397 37.2036 59.0064 38.0332 59.0064C38.2925 59.0064 38.6036 58.9545 38.811 58.8508L39.0184 59.6286Z" fill="white"/>
<path d="M40.6735 55.7391V57.3984H40.7253L41.8142 55.7391H42.9031L41.5031 57.5021C42.0216 57.6576 42.229 57.9687 42.4364 58.4873C42.592 58.9021 42.6957 59.3687 42.9031 59.7317H41.9698C41.8142 59.4724 41.7624 59.1613 41.6587 58.8502C41.5031 58.3836 41.3475 58.0724 40.829 58.0724H40.6735V59.7317H39.792V55.6873H40.6735V55.7391Z" fill="white"/>
<path d="M47.15 57.6582C47.15 58.9545 46.3722 59.7841 45.1797 59.7841C43.9871 59.7841 43.313 58.9026 43.313 57.7619C43.313 56.5693 44.0908 55.636 45.2834 55.636C46.476 55.636 47.15 56.5693 47.15 57.6582ZM44.2463 57.7619C44.2463 58.5397 44.6093 59.1101 45.2315 59.1101C45.8537 59.1101 46.2167 58.5397 46.2167 57.7619C46.2167 57.036 45.8537 56.4138 45.2315 56.4138C44.6093 56.3619 44.2463 56.9323 44.2463 57.7619Z" fill="white"/>
<path d="M48.7579 55.741V56.9335C48.7579 57.5558 48.7579 58.2298 48.706 58.7484C48.9134 58.2817 49.1727 57.7632 49.4319 57.2965L50.3134 55.741H51.2467V59.7854H50.4171V58.5928C50.4171 57.9706 50.4171 57.4002 50.469 56.8817C50.2616 57.3484 50.0023 57.8669 49.7949 58.3335L48.9653 59.7854H47.9282V55.741H48.7579ZM49.3282 54.8076C49.3282 55.015 49.3801 55.1706 49.5875 55.1706C49.7949 55.1706 49.8467 55.015 49.8467 54.8076H50.469C50.4171 55.3261 50.106 55.5335 49.5875 55.5335C49.069 55.5335 48.7579 55.3261 48.706 54.8076H49.3282Z" fill="white"/>
<path d="M7.48761 64.9166L7.1765 65.9536H6.24316L7.48761 61.9092H8.6802L9.92465 65.9536H8.93946L8.62835 64.9166H7.48761ZM8.52465 64.2425L8.26539 63.4129C8.21354 63.1536 8.10983 62.8944 8.05798 62.6351C8.00613 62.8944 7.95428 63.1536 7.85057 63.4129L7.59131 64.2425H8.52465Z" fill="white"/>
<path d="M11.5359 61.9085V63.5678H11.5877L12.6766 61.9085H13.7655L12.3655 63.6715C12.884 63.8271 13.0914 64.1382 13.2988 64.6567C13.4544 65.0715 13.5581 65.5382 13.7655 65.9011H12.7803C12.6248 65.6419 12.5729 65.3308 12.4692 65.0196C12.3136 64.553 12.1581 64.2419 11.6396 64.2419H11.484V65.9011H10.6025V61.8567H11.5359V61.9085Z" fill="white"/>
<path d="M15.4241 64.9163L15.113 65.9534H14.1797L15.4241 61.9089H16.6167L17.8612 65.9534H16.876L16.5649 64.9163H15.4241ZM16.4612 64.2423L16.2019 63.4126C16.1501 63.1534 16.0464 62.8941 15.9945 62.6349C15.9427 62.8941 15.8908 63.1534 15.7871 63.4126L15.5278 64.2423H16.4612Z" fill="white"/>
<path d="M21.85 61.9092V65.2277H22.2649L22.213 66.9388H21.5389L21.4871 65.9018H19.1538L19.1019 66.9388H18.4278L18.376 65.2277H18.6871C18.8426 64.9166 18.9982 64.6573 19.05 64.3462C19.1538 63.9314 19.2056 63.5166 19.2056 62.9981V61.9092H21.85ZM20.0352 63.2055C20.0352 63.6721 19.9834 64.1388 19.8797 64.5536C19.8278 64.8129 19.7241 65.0203 19.6204 65.2277H20.9686V62.687H20.0871V63.2055H20.0352Z" fill="white"/>
<path d="M25.3266 64.2419H23.8229V65.1752H25.4821V65.9011H22.9414V61.8567H25.4303V62.5826H23.8747V63.4122H25.3784V64.2419H25.3266Z" fill="white"/>
<path d="M29.6791 64.3974C29.6791 63.9308 29.6272 63.3085 29.6272 62.7382C29.5235 63.2567 29.3161 63.8271 29.1605 64.2937L28.6939 65.8493H27.9679L27.5531 64.2937C27.3976 63.8271 27.2939 63.2567 27.1902 62.7382C27.1902 63.2567 27.1383 63.8789 27.1383 64.3974L27.0865 65.9011H26.2568L26.5161 61.8567H27.7087L28.1235 63.2048C28.2272 63.6715 28.3828 64.19 28.4865 64.6567C28.5902 64.19 28.7457 63.6715 28.8494 63.2048L29.2642 61.8567H30.4568L30.6642 65.9011H29.7828L29.6791 64.3974Z" fill="white"/>
<path d="M32.3804 61.9092V63.1018C32.3804 63.724 32.3804 64.3981 32.3286 64.9166C32.536 64.4499 32.7952 63.9314 33.0545 63.4647L33.936 61.9092H34.8693V65.9536H34.0397V64.761C34.0397 64.1388 34.0397 63.5684 34.0915 63.0499C33.8841 63.5166 33.6249 64.0351 33.4174 64.5018L32.5878 65.9536H31.5508V61.9092H32.3804Z" fill="white"/>
<path d="M36.625 61.9092V63.1018C36.625 63.724 36.625 64.3981 36.5732 64.9166C36.7806 64.4499 37.0399 63.9314 37.2991 63.4647L38.1806 61.9092H39.1139V65.9536H38.2843V64.761C38.2843 64.1388 38.2843 63.5684 38.3362 63.0499C38.1287 63.5166 37.8695 64.0351 37.6621 64.5018L36.8324 65.9536H35.7954V61.9092H36.625Z" fill="white"/>
<path d="M43.0095 61.9089V63.4645H44.5132V61.9089H45.3947V65.9534H44.5132V64.2941H43.0095V65.9534H42.0762V61.9089H43.0095Z" fill="white"/>
<path d="M47.3133 64.9163L47.0022 65.9534H46.0688L47.3133 61.9089H48.5059L49.7503 65.9534H48.7651L48.454 64.9163H47.3133ZM48.3503 64.2423L48.0911 63.4126C48.0392 63.1534 47.9355 62.8941 47.8837 62.6349C47.8318 62.8941 47.78 63.1534 47.6763 63.4126L47.417 64.2423H48.3503Z" fill="white"/>
<path d="M50.9367 61.9089L51.5071 63.3089C51.6108 63.62 51.7145 63.8275 51.7664 64.0867C51.8182 63.9312 51.8701 63.62 51.9738 63.3089L52.3886 61.9089H53.3219L52.5441 63.8793C52.2849 64.5015 52.0256 65.1238 51.7664 65.4867C51.5071 65.7978 51.1441 66.0052 50.6775 66.0052C50.4701 66.0052 50.3664 66.0052 50.2108 65.9534L50.2627 65.2275C50.3145 65.2275 50.4182 65.2793 50.5738 65.2793C50.833 65.2793 51.0404 65.0719 51.0923 64.9163C51.1441 64.8645 51.0923 64.8126 51.0923 64.7089L49.7441 61.9608H50.9367V61.9089Z" fill="white"/>
<path d="M54.8849 61.9085V63.5678H54.9886L56.0775 61.9085H57.1664L55.7664 63.6715C56.2849 63.8271 56.4923 64.1382 56.6997 64.6567C56.8553 65.0715 56.959 65.5382 57.1664 65.9011H56.1812C56.0256 65.6419 55.9738 65.3308 55.8701 65.0196C55.7145 64.553 55.559 64.2419 55.0405 64.2419H54.8849V65.9011H54.0034V61.8567H54.8849V61.9085Z" fill="white"/>
</svg>
