<svg width="41" height="40" viewBox="0 0 41 40" fill="none" xmlns="http://www.w3.org/2000/svg">
<g filter="url(#filter0_d_2316_452)">
<path d="M10.6384 35V30.8436L16.9066 25.162C18.8675 23.3855 20.4094 21.8939 21.5491 20.6872C22.6887 19.4804 23.4932 18.4078 23.9792 17.4693C24.4653 16.5307 24.6999 15.5922 24.6999 14.6369C24.6999 13.2458 24.2306 12.1564 23.2921 11.3855C22.3535 10.6145 21.0295 10.2291 19.3368 10.2291C18.0463 10.2291 16.8228 10.4637 15.6328 10.9497C14.4597 11.4358 13.4206 12.1397 12.5155 13.0782L10.3535 8.5866C11.644 7.43017 13.1189 6.5419 14.7781 5.92179C16.4541 5.30168 18.1636 5 19.9234 5C22.0519 5 23.8954 5.36872 25.4708 6.10615C27.0463 6.84358 28.2697 7.88268 29.1245 9.22347C29.9792 10.5642 30.415 12.1061 30.415 13.8827C30.415 15.1061 30.1803 16.2961 29.6943 17.4525C29.225 18.6257 28.3703 19.933 27.1636 21.3743C25.9569 22.8324 24.2474 24.5922 22.0686 26.6536L18.6496 29.838H31.1859V34.9497H10.6384V35Z" fill="white"/>
</g>
<defs>
<filter id="filter0_d_2316_452" x="10.3535" y="5" width="24.8325" height="33" filterUnits="userSpaceOnUse" color-interpolation-filters="sRGB">
<feFlood flood-opacity="0" result="BackgroundImageFix"/>
<feColorMatrix in="SourceAlpha" type="matrix" values="0 0 0 0 0 0 0 0 0 0 0 0 0 0 0 0 0 0 127 0" result="hardAlpha"/>
<feOffset dx="4" dy="3"/>
<feComposite in2="hardAlpha" operator="out"/>
<feColorMatrix type="matrix" values="0 0 0 0 0.984314 0 0 0 0 0.780392 0 0 0 0 0.678431 0 0 0 1 0"/>
<feBlend mode="normal" in2="BackgroundImageFix" result="effect1_dropShadow_2316_452"/>
<feBlend mode="normal" in="SourceGraphic" in2="effect1_dropShadow_2316_452" result="shape"/>
</filter>
</defs>
</svg>
