<svg width="41" height="40" viewBox="0 0 41 40" fill="none" xmlns="http://www.w3.org/2000/svg">
<g filter="url(#filter0_d_2316_462)">
<path d="M19.9973 35C18.7214 35 17.4791 34.8657 16.2536 34.5971C15.028 34.3285 13.9032 33.9424 12.896 33.4723C11.8887 33.0022 11.0661 32.465 10.4785 31.8607L12.4091 26.9082C13.2149 27.7812 14.2894 28.4695 15.6156 28.9731C16.9419 29.4768 18.2849 29.7454 19.6279 29.7454C20.7527 29.7454 21.7264 29.5607 22.5658 29.1914C23.4052 28.822 24.0599 28.3016 24.53 27.6301C25.0001 26.9586 25.2351 26.1696 25.2351 25.2798C25.2351 23.8696 24.7147 22.7616 23.6906 21.9894C22.6665 21.2003 21.3067 20.8142 19.6279 20.8142C19.0907 20.8142 18.5367 20.8478 17.9659 20.9317C17.3783 21.0157 16.7908 21.1164 16.1864 21.2843L14.4908 17.3559L22.6833 10.0867H10.7975V5H29.7678V9.66704L22.1293 17.1041C23.657 17.1544 25.1008 17.4902 26.4606 18.1617C27.8204 18.8165 28.9284 19.7734 29.7846 21.0325C30.6408 22.2915 31.0605 23.8528 31.0605 25.7163C31.0605 27.5294 30.5904 29.141 29.6503 30.5512C28.7102 31.9446 27.4175 33.0526 25.7555 33.8416C24.0935 34.6307 22.1797 35 19.9973 35Z" fill="white"/>
</g>
<defs>
<filter id="filter0_d_2316_462" x="10.4785" y="5" width="24.582" height="33" filterUnits="userSpaceOnUse" color-interpolation-filters="sRGB">
<feFlood flood-opacity="0" result="BackgroundImageFix"/>
<feColorMatrix in="SourceAlpha" type="matrix" values="0 0 0 0 0 0 0 0 0 0 0 0 0 0 0 0 0 0 127 0" result="hardAlpha"/>
<feOffset dx="4" dy="3"/>
<feComposite in2="hardAlpha" operator="out"/>
<feColorMatrix type="matrix" values="0 0 0 0 0.984314 0 0 0 0 0.780392 0 0 0 0 0.678431 0 0 0 1 0"/>
<feBlend mode="normal" in2="BackgroundImageFix" result="effect1_dropShadow_2316_462"/>
<feBlend mode="normal" in="SourceGraphic" in2="effect1_dropShadow_2316_462" result="shape"/>
</filter>
</defs>
</svg>
