<svg width="339" height="82" viewBox="0 0 339 82" fill="none" xmlns="http://www.w3.org/2000/svg">
<path d="M110.49 59.4144C110.648 59.4144 110.726 59.4931 110.726 59.6505C110.726 59.6505 110.726 59.7292 110.726 59.8079C110.726 59.8866 110.648 59.8866 110.569 59.8866C110.254 59.8866 109.861 59.9653 109.389 60.1227C108.916 60.2801 108.444 60.5162 107.893 60.8309C107.421 61.1457 106.87 61.5392 106.398 61.9327C105.926 62.4048 105.454 62.877 105.06 63.4279C104.667 63.9787 104.352 64.6083 104.116 65.3166C103.88 66.0248 103.722 66.7331 103.722 67.5987C103.722 68.307 103.88 68.9365 104.116 69.4087C104.352 69.8809 104.824 70.1169 105.532 70.1169C106.319 70.1169 107.106 69.7235 107.893 68.9365C108.68 68.1496 109.31 67.0478 109.861 65.7887C110.412 64.3722 110.805 63.0344 111.12 61.6966C111.356 60.3588 111.513 58.9423 111.513 57.6045C111.513 55.1649 111.198 53.3549 110.569 52.0958C109.939 50.8367 109.074 50.2072 107.893 50.2072C107.421 50.2072 107.106 50.2859 106.713 50.3645C106.398 50.5219 106.083 50.6006 105.769 50.8367C105.532 50.9941 105.296 51.1515 105.06 51.3876C104.903 51.545 104.746 51.7024 104.667 51.781C104.667 51.781 104.588 51.8597 104.588 51.9384C104.588 52.0171 104.509 52.0171 104.431 52.0171C104.352 52.0171 104.273 52.0171 104.273 51.9384C104.273 51.8597 104.352 51.7024 104.431 51.545C104.903 50.9941 105.532 50.4432 106.319 49.9711C107.106 49.4989 107.972 49.2628 108.995 49.2628C110.333 49.2628 111.356 49.8924 112.143 51.1515C112.93 52.4106 113.323 54.1419 113.323 56.424C113.323 60.1227 112.3 63.5066 110.333 66.7331C109.389 68.307 108.365 69.5661 107.421 70.353C106.477 71.14 105.375 71.5334 104.195 71.5334C103.408 71.5334 102.857 71.2187 102.542 70.6678C102.227 70.1169 101.991 69.4874 101.991 68.7004C101.991 68.0709 102.07 67.3626 102.227 66.7331C102.385 66.0248 102.699 65.3953 103.093 64.687C103.565 63.8214 104.116 63.1131 104.824 62.4048C105.454 61.7753 106.162 61.2244 106.87 60.7523C107.579 60.2801 108.287 59.9653 108.916 59.7292C109.389 59.5718 110.018 59.4144 110.49 59.4144Z" fill="white"/>
<path d="M120.715 69.3299C120.715 69.4873 120.794 69.566 120.872 69.6447C120.951 69.6447 121.109 69.7234 121.187 69.7234C121.345 69.7234 121.423 69.7234 121.502 69.6447C121.581 69.6447 121.659 69.566 121.738 69.4873C121.738 69.4873 121.817 69.4086 121.896 69.4086C121.974 69.4086 121.974 69.3299 122.053 69.3299C122.132 69.3299 122.132 69.3299 122.132 69.4086C122.132 69.4873 122.132 69.566 122.053 69.6447C121.738 69.9595 121.345 70.2742 120.794 70.6677C120.479 70.9038 120.243 71.0612 120.007 71.1399C119.771 71.2186 119.535 71.2973 119.377 71.2973C119.22 71.2973 119.063 71.2186 118.905 71.1399C118.748 71.0612 118.669 70.9038 118.669 70.589C118.669 70.4316 118.669 70.2742 118.748 70.1169L121.109 61.6178C121.109 61.3817 121.109 61.1456 121.109 60.9096C121.03 60.6735 120.794 60.5161 120.4 60.5161C120.164 60.5161 119.928 60.5948 119.613 60.8309C119.299 61.0669 118.984 61.303 118.59 61.6178C118.197 61.9326 117.803 62.3261 117.41 62.7195C117.016 63.113 116.623 63.5852 116.308 63.9787C116.072 64.2934 115.757 64.6869 115.443 65.1591C115.128 65.6312 114.892 66.1034 114.656 66.5756C114.42 67.0478 114.262 67.5199 114.105 68.0708C113.947 68.543 113.869 69.0151 113.869 69.4086C113.869 69.6447 113.869 69.8021 113.947 69.8808C114.026 69.9595 114.105 70.0382 114.183 70.0382C114.262 70.0382 114.341 70.0382 114.341 70.0382C114.341 70.0382 114.42 70.0382 114.498 69.9595C114.42 70.1168 114.341 70.2742 114.183 70.4316C114.026 70.589 113.869 70.7464 113.711 70.9038C113.554 71.0612 113.396 71.1399 113.16 71.2186C113.003 71.2973 112.846 71.376 112.688 71.376C112.452 71.376 112.216 71.2973 112.137 71.1399C111.98 70.9825 111.98 70.6677 111.98 70.1169C111.98 69.6447 112.137 69.0938 112.373 68.4643C112.61 67.9134 112.924 67.2838 113.318 66.6543C113.711 66.0247 114.105 65.3952 114.656 64.7656C115.128 64.136 115.679 63.5852 116.229 62.9556C116.702 62.4835 117.174 62.0113 117.646 61.5391C118.118 61.0669 118.669 60.6735 119.141 60.3587C119.613 60.0439 120.086 59.7291 120.558 59.4931C121.03 59.257 121.423 59.1783 121.817 59.0996C122.132 59.0996 122.368 59.0996 122.604 59.1783C122.761 59.257 122.919 59.3357 122.997 59.4931C123.076 59.6504 123.155 59.8078 123.155 59.9652C123.155 60.1226 123.155 60.3587 123.076 60.5161L120.951 68.2282C120.872 68.4643 120.794 68.7003 120.794 68.779C120.794 69.0151 120.715 69.1725 120.715 69.3299Z" fill="white"/>
<path d="M132.839 69.094C132.839 69.2514 132.839 69.4088 132.918 69.4875C132.997 69.6448 133.075 69.7235 133.233 69.7235C133.39 69.7235 133.469 69.7235 133.548 69.6449C133.626 69.6449 133.705 69.5662 133.784 69.4875C133.784 69.4875 133.862 69.4088 133.941 69.4088C134.02 69.4088 134.02 69.3301 134.098 69.3301C134.177 69.3301 134.177 69.3301 134.177 69.4088C134.177 69.4875 134.177 69.5662 134.098 69.6449C133.941 69.8022 133.784 69.9596 133.469 70.117C133.233 70.2744 132.997 70.5105 132.682 70.6679C132.367 70.904 132.052 71.0614 131.816 71.14C131.58 71.2187 131.344 71.2974 131.108 71.2974C130.951 71.2974 130.793 71.2187 130.715 71.0614C130.636 70.904 130.636 70.7466 130.636 70.5892C130.636 70.5892 130.636 70.4318 130.715 70.117C130.715 69.8809 130.793 69.5662 130.872 69.3301L133.469 60.2015H132.839C132.052 60.2015 131.423 60.2802 130.951 60.4376C130.479 60.5949 130.006 60.7523 129.692 61.0671C129.377 61.3032 129.141 61.618 128.983 62.0115C128.826 62.4049 128.747 62.7984 128.747 63.1919C128.747 63.664 128.826 64.0575 129.062 64.3723C129.298 64.6871 129.534 64.8445 129.849 65.0019C130.164 65.1592 130.479 65.2379 130.793 65.3166C131.108 65.3953 131.423 65.3953 131.58 65.3953L131.502 65.6314C130.793 65.7888 130.164 66.1036 129.692 66.4971C129.141 66.8905 128.669 67.3627 128.118 67.9923C127.724 68.3857 127.409 68.7792 127.095 69.1727C126.78 69.5662 126.465 69.9596 126.072 70.2744C125.757 70.5892 125.363 70.904 125.049 71.0614C124.655 71.2974 124.262 71.3761 123.868 71.3761C123.553 71.3761 123.239 71.2974 123.081 71.14C122.845 70.9827 122.688 70.8253 122.452 70.5105C123.003 70.4318 123.475 70.1957 123.868 69.8809C124.34 69.5662 124.734 69.1727 125.049 68.8579C125.442 68.4644 125.836 68.071 126.229 67.6775C127.488 66.5758 128.669 65.8675 129.849 65.5527V65.474C129.692 65.474 129.455 65.474 129.141 65.3953C128.826 65.3166 128.511 65.2379 128.118 65.0806C127.803 64.9232 127.488 64.6871 127.252 64.3723C127.016 64.0575 126.859 63.5854 126.859 63.0345C126.859 62.4836 127.016 62.0115 127.331 61.5393C127.646 61.1458 128.118 60.7523 128.669 60.4376C129.219 60.1228 129.849 59.8867 130.636 59.7293C131.344 59.5719 132.131 59.4932 132.918 59.4932H135.358L132.839 68.2283C132.839 68.307 132.761 68.4644 132.761 68.6218C132.839 68.8579 132.839 69.0153 132.839 69.094Z" fill="white"/>
<path d="M157.627 59.7293C157.785 59.7293 157.942 59.7293 157.942 59.7293C157.942 59.808 157.864 59.8867 157.785 59.9654C157.706 60.0441 157.549 60.1228 157.313 60.2802C157.155 60.3589 156.919 60.5163 156.762 60.595C156.526 60.6736 156.368 60.7523 156.211 60.831C156.054 60.9097 155.896 60.9097 155.739 60.9097C155.424 60.9097 155.188 60.831 154.873 60.6736C154.558 60.5163 154.322 60.4376 154.086 60.4376C153.693 60.4376 153.299 60.5163 152.906 60.6736C152.512 60.831 152.04 61.2245 151.568 61.7754C151.253 62.1688 150.938 62.641 150.702 63.1132C150.466 63.5854 150.23 64.0575 150.073 64.5297C149.915 65.0019 149.758 65.474 149.679 65.8675C149.601 66.261 149.601 66.6545 149.601 66.9692C149.601 67.9136 149.758 68.7005 150.151 69.3301C150.466 69.9596 151.096 70.2744 152.04 70.2744C152.591 70.2744 153.142 70.1957 153.693 69.9596C154.244 69.7235 154.873 69.4088 155.581 68.9366C155.66 68.9366 155.739 68.8579 155.817 68.7792C155.896 68.7005 155.975 68.7005 156.054 68.7005C156.132 68.7005 156.132 68.7005 156.132 68.7792C156.132 68.8579 156.054 68.9366 155.975 69.094C155.66 69.4088 155.345 69.6448 154.952 69.9596C154.558 70.2744 154.165 70.5105 153.693 70.7466C153.221 70.9827 152.748 71.2187 152.198 71.3761C151.647 71.5335 151.096 71.6122 150.466 71.6122C149.522 71.6122 148.814 71.2974 148.341 70.6679C147.948 70.0383 147.712 69.2514 147.712 68.3857C147.712 67.6775 147.791 66.8905 148.027 66.1823C148.263 65.474 148.499 64.7658 148.892 64.1362C149.286 63.5067 149.679 62.8771 150.23 62.3262C150.702 61.7754 151.332 61.2245 151.883 60.831C152.355 60.5163 152.906 60.2015 153.535 59.8867C154.165 59.5719 154.794 59.4932 155.345 59.4932C155.66 59.4932 155.975 59.5719 156.368 59.7293C156.841 59.6506 157.234 59.7293 157.627 59.7293Z" fill="white"/>
<path d="M174.233 60.1225C174.233 60.2799 174.233 60.4373 174.154 60.7521C174.075 60.9882 174.075 61.2242 173.997 61.3816L172.974 64.8442C172.895 65.2377 172.737 65.7098 172.58 66.1033C172.423 66.5755 172.344 66.969 172.265 67.3624C172.187 67.7559 172.108 68.0707 172.029 68.3855C171.95 68.7002 171.95 68.9363 171.95 69.015C171.95 69.1724 171.95 69.3298 172.029 69.4085C172.108 69.5659 172.187 69.6446 172.344 69.6446C172.501 69.6446 172.58 69.6446 172.659 69.5659C172.737 69.5659 172.816 69.4872 172.895 69.4085C172.895 69.4085 172.973 69.3298 173.052 69.3298C173.131 69.3298 173.131 69.2511 173.21 69.2511C173.288 69.2511 173.288 69.2511 173.288 69.3298C173.288 69.4085 173.288 69.4872 173.21 69.5659C173.052 69.7233 172.895 69.8807 172.659 70.0381C172.423 70.1955 172.187 70.4315 171.95 70.5889C171.714 70.7463 171.478 70.9037 171.242 70.9824C171.006 71.0611 170.77 71.1398 170.613 71.1398C170.455 71.1398 170.298 71.0611 170.219 70.9037C170.14 70.7463 170.062 70.5102 170.062 70.1955C170.062 70.0381 170.062 69.7233 170.14 69.3298C170.219 68.9363 170.298 68.5429 170.377 68.0707C170.455 67.5985 170.613 67.1264 170.691 66.5755C170.849 66.0246 170.927 65.4738 171.085 65.0016C171.164 64.6868 171.321 64.2933 171.4 63.8999C171.557 63.5064 171.636 63.1129 171.714 62.7194C171.793 62.326 171.872 62.0112 171.95 61.7751C172.029 61.4603 172.029 61.3029 172.029 61.2242C172.029 60.9095 171.95 60.7521 171.714 60.7521C171.4 60.7521 170.927 60.9882 170.377 61.3816C169.826 61.8538 169.275 62.326 168.724 62.9555C168.409 63.2703 168.173 63.5851 167.937 63.8212C167.701 64.0573 167.544 64.372 167.307 64.6868C167.071 65.0016 166.914 65.2377 166.757 65.6311C166.599 65.9459 166.442 66.3394 166.284 66.7329C166.048 67.205 165.812 67.6772 165.576 68.3068C165.419 68.9363 165.183 69.4872 164.947 69.9594C164.789 70.1168 164.632 70.3528 164.474 70.5102C164.238 70.6676 164.081 70.825 163.845 70.9037C163.609 71.0611 163.451 71.1398 163.294 71.1398C163.137 71.2185 162.979 71.2185 162.901 71.1398C163.137 70.5102 163.373 69.8807 163.53 69.2511C163.688 68.7003 163.924 68.1494 164.081 67.5198C164.317 66.8903 164.474 66.2607 164.632 65.7098C164.711 65.3164 164.868 64.8442 165.025 64.372C165.183 63.8999 165.261 63.5064 165.419 63.1129C165.497 62.7194 165.576 62.326 165.655 62.0112C165.734 61.6964 165.734 61.4603 165.734 61.3029C165.734 61.1455 165.734 60.9882 165.655 60.9095C165.655 60.7521 165.497 60.7521 165.261 60.7521C165.104 60.7521 164.947 60.8308 164.711 60.9095C164.474 61.0668 164.238 61.2242 164.002 61.3816C163.766 61.6177 163.451 61.8538 163.215 62.0899C162.901 62.326 162.664 62.6407 162.428 62.9555C162.114 63.2703 161.878 63.5851 161.72 63.8212C161.563 64.0573 161.327 64.2933 161.169 64.6081C161.012 64.8442 160.776 65.159 160.618 65.5525C160.461 65.8672 160.225 66.3394 159.91 66.8116C159.674 67.2837 159.438 67.8346 159.202 68.3855C158.966 68.9363 158.808 69.4872 158.572 69.9594C158.336 70.2741 158.1 70.5889 157.628 70.825C157.235 71.0611 156.92 71.2185 156.605 71.2185L159.359 61.6177C159.438 61.3816 159.438 61.2242 159.438 61.1455C159.438 60.9095 159.359 60.8308 159.123 60.8308C159.045 60.8308 158.887 60.8308 158.73 60.9095C158.572 60.9882 158.494 60.9882 158.415 60.9882C158.336 60.9882 158.336 60.9882 158.336 60.9095C158.336 60.8308 158.415 60.7521 158.572 60.6734C158.73 60.5947 158.887 60.4373 159.202 60.2012C159.517 59.9651 159.91 59.729 160.304 59.5716C160.697 59.4143 161.012 59.2569 161.248 59.2569C161.484 59.2569 161.641 59.3356 161.641 59.5716C161.641 59.729 161.641 59.8864 161.563 60.0438C161.563 60.2012 161.484 60.3586 161.484 60.516C161.405 60.7521 161.327 61.0668 161.169 61.539C161.012 62.0112 160.933 62.4047 160.776 62.8768C160.618 63.349 160.54 63.7425 160.382 64.136C160.225 64.5294 160.146 64.7655 160.146 64.8442C160.146 64.8442 160.146 64.9229 160.225 64.9229C160.382 64.6868 160.697 64.2933 161.169 63.7425C161.641 63.1129 162.114 62.5621 162.743 61.9325C163.451 61.2242 164.16 60.5947 164.947 60.1225C165.734 59.6503 166.363 59.4143 166.914 59.4143C167.071 59.4143 167.229 59.493 167.386 59.5716C167.544 59.6503 167.622 59.8864 167.622 60.2012C167.622 60.4373 167.622 60.5947 167.544 60.8308C167.465 61.0668 167.465 61.3029 167.386 61.539C167.307 61.9325 167.15 62.326 167.071 62.7194C166.993 63.1129 166.835 63.5064 166.757 63.8212C166.678 64.2146 166.521 64.6081 166.442 64.9229L166.521 65.0016C166.599 64.9229 166.757 64.6868 166.914 64.4507C167.071 64.2146 167.307 63.9786 167.544 63.6638C167.78 63.349 168.016 63.0342 168.331 62.7194C168.567 62.4047 168.881 62.0899 169.196 61.7751C169.904 61.0669 170.613 60.516 171.321 60.0438C172.029 59.6503 172.659 59.4143 173.288 59.4143C173.446 59.4143 173.603 59.493 173.76 59.5716C174.154 59.6503 174.233 59.8077 174.233 60.1225Z" fill="white"/>
<path d="M183.438 69.0941C183.438 69.2515 183.438 69.4088 183.517 69.4875C183.596 69.6449 183.674 69.7236 183.832 69.7236C183.989 69.7236 184.068 69.7236 184.147 69.6449C184.225 69.6449 184.304 69.5662 184.383 69.4875C184.383 69.4875 184.461 69.4089 184.54 69.4089C184.619 69.4089 184.619 69.3302 184.697 69.3302C184.776 69.3302 184.776 69.3302 184.776 69.4089C184.776 69.4875 184.776 69.5662 184.697 69.6449C184.383 69.9597 183.989 70.2745 183.438 70.668C183.124 70.9041 182.887 71.0614 182.651 71.1401C182.415 71.2188 182.179 71.2975 182.022 71.2975C181.864 71.2975 181.707 71.2188 181.628 71.0614C181.55 70.9041 181.471 70.668 181.471 70.3532C181.471 70.1958 181.55 69.881 181.628 69.4875C181.707 69.0941 181.864 68.7006 181.943 68.3071C182.101 67.835 182.258 67.3628 182.415 66.8119H182.337C182.179 67.048 181.864 67.3628 181.392 67.835C180.92 68.3071 180.448 68.858 179.897 69.3302C179.346 69.8023 178.795 70.2745 178.244 70.668C177.694 71.0614 177.143 71.2188 176.671 71.2188C176.198 71.2188 175.884 70.9827 175.569 70.5893C175.254 70.1958 175.097 69.5662 175.097 68.7006C175.097 67.4415 175.411 66.1824 175.962 64.9232C176.513 63.6641 177.3 62.5624 178.244 61.6181C178.953 60.8311 179.74 60.2803 180.684 59.8081C181.55 59.3359 182.415 59.1785 183.281 59.1785C183.753 59.1785 184.068 59.1785 184.383 59.2572C184.697 59.3359 184.934 59.4933 185.17 59.6507C185.406 59.4933 185.642 59.3359 185.878 59.2572C186.114 59.1785 186.35 59.1785 186.586 59.2572C186.507 59.572 186.35 59.8868 186.193 60.2803C186.035 60.595 185.957 60.9885 185.799 61.382C185.563 62.0115 185.327 62.7198 185.091 63.5854C184.855 64.3724 184.619 65.1593 184.383 65.8676C184.147 66.5758 183.989 67.2054 183.832 67.7563C183.517 68.5432 183.438 68.9367 183.438 69.0941ZM183.596 61.7755C183.596 61.4607 183.517 61.2246 183.438 61.0672C183.36 60.9098 183.202 60.7524 183.045 60.6737C182.887 60.595 182.73 60.5163 182.494 60.4376C182.337 60.4376 182.101 60.3589 182.022 60.3589C181.392 60.3589 180.763 60.5163 180.291 60.7524C179.818 61.0672 179.346 61.382 179.031 61.8542C178.559 62.405 178.244 62.9559 177.93 63.5854C177.615 64.215 177.458 64.7659 177.3 65.3167C177.143 65.8676 177.064 66.4185 176.985 66.8906C176.907 67.3628 176.907 67.7563 176.907 67.9923C176.907 68.5432 176.985 68.9367 177.143 69.2515C177.3 69.5662 177.536 69.7236 177.772 69.7236C178.087 69.7236 178.402 69.6449 178.795 69.4089C179.189 69.1728 179.582 68.9367 179.976 68.6219C180.369 68.3071 180.763 67.9136 181.156 67.4415C181.55 66.9693 181.864 66.5758 182.179 66.1037C182.337 65.7889 182.573 65.4741 182.73 65.0806C182.887 64.6872 183.045 64.2937 183.202 63.8215C183.36 63.428 183.438 63.0346 183.517 62.6411C183.517 62.3263 183.596 62.0115 183.596 61.7755Z" fill="white"/>
<path d="M189.107 61.6181C189.107 61.5394 189.107 61.4608 189.107 61.3821C189.107 61.2247 189.107 61.146 189.028 61.146C188.949 61.146 188.87 61.0673 188.792 61.0673C188.713 61.0673 188.556 61.0673 188.477 61.146C188.32 61.2247 188.241 61.2247 188.162 61.2247C188.084 61.2247 188.083 61.2247 188.083 61.146C188.083 61.0673 188.162 60.9886 188.32 60.9099C188.477 60.8312 188.634 60.6738 188.87 60.5164C189.107 60.359 189.421 60.1229 189.893 59.8869C190.051 59.8082 190.208 59.7295 190.366 59.6508C190.523 59.5721 190.68 59.5721 190.838 59.5721C191.074 59.5721 191.231 59.6508 191.231 59.8869C191.231 60.0442 191.231 60.1229 191.231 60.2803C191.231 60.4377 191.231 60.5951 191.153 60.8312L190.759 62.5625H190.838C191.31 62.0903 191.703 61.6968 192.176 61.3034C192.648 60.9099 193.041 60.5164 193.513 60.2803C193.986 59.9656 194.458 59.7295 194.93 59.5721C195.402 59.4147 195.874 59.336 196.425 59.4147C197.055 59.4934 197.527 59.7295 197.842 60.2016C198.156 60.6738 198.314 61.146 198.314 61.6968C198.314 62.8773 198.078 64.0577 197.527 65.3168C196.976 66.5759 196.189 67.6776 195.166 68.7794C194.851 69.1728 194.458 69.5663 194.064 69.8811C193.671 70.2746 193.277 70.5894 192.884 70.8254C192.49 71.0615 192.097 71.2976 191.703 71.455C191.31 71.6124 190.917 71.6911 190.523 71.6911C190.051 71.6911 189.657 71.6124 189.343 71.455C189.028 71.2976 188.792 71.1402 188.634 70.9828C188.634 71.0615 188.556 71.2976 188.398 71.6124C188.32 71.9272 188.162 72.2419 188.083 72.7141C187.926 73.1076 187.847 73.5798 187.69 74.1306C187.533 74.6028 187.375 75.1537 187.297 75.7045C186.982 76.9636 186.588 78.3014 186.195 79.8753C186.116 80.1114 185.959 80.3475 185.801 80.5836C185.644 80.8197 185.408 80.9771 185.25 81.2132C185.014 81.3705 184.778 81.5279 184.542 81.6853C184.306 81.8427 184.07 81.9214 183.834 82.0001L189.264 62.169C189.028 61.7755 189.107 61.6968 189.107 61.6181ZM196.189 62.956C196.189 62.7199 196.189 62.4838 196.11 62.2477C196.11 62.0116 196.032 61.7755 195.874 61.5394C195.796 61.3034 195.559 61.146 195.402 60.9886C195.166 60.8312 194.93 60.7525 194.536 60.7525C193.907 60.7525 193.277 60.9886 192.805 61.3821C192.333 61.7755 191.782 62.2477 191.31 62.7986C190.995 63.1133 190.759 63.5068 190.523 63.979C190.287 64.4512 190.051 65.002 189.893 65.5529C189.736 66.1037 189.579 66.5759 189.421 67.0481C189.343 67.5203 189.264 67.835 189.185 68.0711C189.185 68.3072 189.185 68.5433 189.264 68.8581C189.343 69.0942 189.421 69.3302 189.5 69.5663C189.657 69.8024 189.815 69.9598 190.051 70.1172C190.287 70.2746 190.602 70.3533 190.995 70.3533C191.625 70.3533 192.254 70.1959 192.726 69.8811C193.199 69.5663 193.75 69.0942 194.222 68.4646C194.536 68.0711 194.851 67.5989 195.087 67.1268C195.323 66.6546 195.481 66.1824 195.638 65.6316C195.796 65.1594 195.874 64.6872 195.953 64.2151C196.11 63.7429 196.189 63.3494 196.189 62.956Z" fill="white"/>
<path d="M213.89 68.8579C213.89 69.0153 213.812 69.1727 213.812 69.2514C213.812 69.3301 213.812 69.4875 213.89 69.4875C213.969 69.5662 214.048 69.5662 214.205 69.5662C214.362 69.5662 214.598 69.4875 214.835 69.3301C214.835 69.3301 214.913 69.2514 214.992 69.2514C215.071 69.2514 215.071 69.1727 215.149 69.1727C215.228 69.1727 215.228 69.1727 215.228 69.2514C215.228 69.3301 215.228 69.4088 215.149 69.4875C214.992 69.6449 214.835 69.8023 214.599 69.9597C214.362 70.1171 214.126 70.2745 213.89 70.5105C213.575 70.7466 213.339 70.904 213.103 70.9827C212.867 71.0614 212.631 71.1401 212.474 71.1401C212.316 71.1401 212.159 71.0614 212.002 70.9827C211.844 70.904 211.765 70.7466 211.765 70.5105C211.765 70.3531 211.765 70.1171 211.844 69.881C211.923 69.6449 212.002 69.2514 212.159 68.8579L213.182 65.7102L213.103 65.6315C213.025 65.7102 212.867 65.8675 212.71 66.1036C212.552 66.3397 212.316 66.5758 212.08 66.8119C211.844 67.048 211.529 67.3627 211.293 67.6775C210.979 67.9923 210.664 68.3071 210.428 68.6219C210.113 68.9366 209.798 69.2514 209.405 69.5662C209.011 69.881 208.696 70.1958 208.303 70.4318C207.909 70.6679 207.595 70.904 207.28 71.0614C206.965 71.2188 206.65 71.2975 206.336 71.2975C206.178 71.2975 206.021 71.2188 205.863 71.0614C205.706 70.904 205.627 70.7466 205.627 70.4318C205.627 70.1958 205.627 69.881 205.706 69.5662C205.785 69.2514 205.863 68.9366 205.942 68.7006L206.886 65.7889L206.808 65.7102C206.729 65.7889 206.572 66.0249 206.336 66.261C206.099 66.4971 205.942 66.7332 205.627 67.048C205.391 67.3627 205.076 67.6775 204.762 67.9923C204.447 68.3071 204.132 68.6219 203.817 68.9366C203.03 69.6449 202.401 70.2745 201.771 70.6679C201.142 71.1401 200.512 71.3762 199.961 71.3762C199.646 71.3762 199.489 71.2975 199.332 71.0614C199.253 70.8253 199.174 70.5892 199.174 70.2745C199.174 70.0384 199.253 69.8023 199.332 69.4088C199.41 69.0153 199.489 68.6219 199.646 68.1497C199.804 67.6775 199.883 67.2054 200.04 66.7332C200.197 66.261 200.355 65.7102 200.512 65.238C200.591 64.9232 200.748 64.5297 200.827 64.1363C200.984 63.7428 201.063 63.3493 201.142 63.0345C201.22 62.6411 201.378 62.2476 201.456 61.8541C201.456 61.6967 201.535 61.5393 201.535 61.4606C201.535 61.3819 201.535 61.2246 201.535 61.2246C201.535 60.9885 201.456 60.9098 201.22 60.9098C201.142 60.9098 200.984 60.9098 200.827 60.9885C200.67 61.0672 200.591 61.0672 200.512 61.0672C200.433 61.0672 200.433 61.0672 200.433 60.9885C200.433 60.9098 200.512 60.8311 200.67 60.7524C200.827 60.6737 200.984 60.5163 201.299 60.2802C201.614 60.0441 202.007 59.808 202.401 59.6507C202.794 59.4933 203.109 59.3359 203.345 59.3359C203.581 59.3359 203.739 59.4146 203.739 59.6507C203.739 59.808 203.739 59.9654 203.66 60.1228C203.66 60.2802 203.581 60.4376 203.581 60.595C203.581 60.6737 203.503 60.9098 203.424 61.2246C203.345 61.5393 203.266 61.9328 203.109 62.3263C202.952 62.7984 202.794 63.2706 202.637 63.7428C202.479 64.2937 202.322 64.7658 202.165 65.3167C201.929 66.261 201.693 67.048 201.456 67.7562C201.22 68.4645 201.142 69.0153 201.142 69.3301C201.142 69.6449 201.299 69.7236 201.535 69.7236C201.771 69.7236 202.165 69.5662 202.637 69.1727C203.109 68.7792 203.66 68.3071 204.211 67.6775C204.368 67.5201 204.604 67.2841 204.84 67.048C205.076 66.8119 205.312 66.4971 205.627 66.1823C205.863 65.8675 206.178 65.5528 206.414 65.1593C206.65 64.7658 206.886 64.3723 207.044 63.9789C207.201 63.7428 207.359 63.5067 207.516 63.1919C207.673 62.8771 207.752 62.5624 207.909 62.2476C207.988 61.9328 208.146 61.618 208.224 61.3032C208.303 60.9885 208.46 60.7524 208.539 60.5163C208.775 60.1228 209.09 59.8867 209.483 59.6507C209.877 59.4933 210.192 59.3359 210.506 59.3359C210.27 59.9654 210.034 60.6737 209.877 61.3032C209.719 61.8541 209.483 62.4837 209.247 63.1132C209.011 63.7428 208.854 64.3723 208.696 64.9232C208.539 65.3954 208.382 65.7889 208.224 66.261C208.067 66.7332 207.988 67.1267 207.831 67.5201C207.752 67.9136 207.595 68.2284 207.516 68.5432C207.437 68.8579 207.437 69.094 207.437 69.2514C207.437 69.4088 207.437 69.4875 207.516 69.5662C207.595 69.5662 207.673 69.6449 207.831 69.6449C208.067 69.6449 208.46 69.4088 208.932 69.0153C209.483 68.6219 210.034 68.071 210.585 67.4414C211.293 66.7332 211.765 66.0249 212.159 65.5528C212.552 65.0019 212.946 64.451 213.261 63.9002C213.418 63.6641 213.497 63.428 213.654 63.1132C213.812 62.7984 213.969 62.4837 214.048 62.1689C214.205 61.8541 214.284 61.5393 214.441 61.2246C214.598 60.9098 214.677 60.6737 214.756 60.4376C214.992 60.1228 215.307 59.808 215.543 59.6507C215.858 59.4933 216.172 59.4146 216.645 59.3359L213.733 68.3071C213.969 68.5432 213.969 68.7006 213.89 68.8579Z" fill="white"/>
<path d="M221.523 70.1954C222.074 70.1954 222.625 70.1167 223.175 69.8806C223.726 69.6446 224.356 69.3298 225.064 68.8576C225.143 68.8576 225.222 68.7789 225.3 68.7002C225.379 68.6215 225.458 68.6215 225.536 68.6215C225.615 68.6215 225.615 68.6215 225.615 68.7002C225.615 68.7789 225.536 68.8576 225.458 69.015C225.064 69.3298 224.749 69.6446 224.277 69.9593C223.884 70.2741 223.412 70.5102 222.939 70.7463C222.467 70.9824 221.995 71.1398 221.523 71.2972C221.051 71.4545 220.5 71.5332 219.949 71.5332C219.477 71.5332 219.005 71.4545 218.69 71.2185C218.375 71.0611 218.06 70.7463 217.903 70.5102C217.667 70.1954 217.588 69.8806 217.509 69.5659C217.431 69.2511 217.352 68.8576 217.352 68.5428C217.352 67.3624 217.667 66.0246 218.296 64.6868C218.926 63.349 219.87 62.0899 221.051 61.0668C221.523 60.5947 222.152 60.2012 222.782 59.8864C223.412 59.5716 224.041 59.4142 224.749 59.4142C225.064 59.4142 225.3 59.4929 225.458 59.6503C225.615 59.8077 225.694 59.9651 225.694 60.2799C225.694 60.5947 225.536 60.8307 225.379 61.2242C225.222 61.539 224.985 61.8538 224.671 62.1686C224.356 62.4833 224.041 62.7194 223.726 63.0342C223.333 63.2703 223.018 63.5064 222.625 63.6638C222.074 63.8998 221.602 64.1359 221.051 64.2933C220.579 64.4507 220.185 64.5294 219.949 64.5294C219.949 64.6081 219.87 64.7655 219.792 65.0016C219.713 65.2377 219.634 65.4737 219.555 65.7885C219.477 66.1033 219.398 66.3394 219.398 66.6542C219.319 66.9689 219.319 67.1263 219.319 67.3624C219.319 67.7559 219.319 68.1494 219.398 68.5428C219.477 68.9363 219.634 69.2511 219.792 69.4872C219.949 69.7233 220.185 69.9593 220.5 70.1167C220.736 70.1167 221.129 70.1954 221.523 70.1954ZM223.726 60.9881C223.726 60.7521 223.648 60.5947 223.49 60.5947C223.333 60.5947 223.175 60.516 223.097 60.516C222.861 60.516 222.546 60.5947 222.31 60.8307C221.995 60.9881 221.759 61.2242 221.523 61.539C221.208 61.8538 220.972 62.1686 220.736 62.6407C220.5 63.0342 220.342 63.349 220.264 63.5851C220.342 63.5851 220.421 63.5851 220.579 63.5851C220.736 63.5851 220.893 63.5064 221.051 63.5064C221.208 63.5064 221.444 63.4277 221.602 63.4277C221.759 63.349 221.916 63.349 222.074 63.2703C222.703 62.9555 223.175 62.562 223.412 62.1686C223.648 61.6964 223.726 61.3816 223.726 60.9881Z" fill="white"/>
<path d="M228.842 61.2246C228.842 60.9885 228.763 60.9098 228.527 60.9098C228.448 60.9098 228.291 60.9098 228.212 60.9885C228.055 61.0672 227.976 61.0672 227.897 61.0672C227.819 61.0672 227.819 61.0672 227.819 60.9885C227.819 60.9098 227.897 60.8311 228.055 60.7524C228.212 60.6737 228.37 60.5163 228.684 60.2802C228.999 60.0442 229.393 59.8081 229.786 59.6507C230.18 59.4933 230.494 59.3359 230.73 59.3359C230.967 59.3359 231.124 59.4146 231.124 59.6507C231.124 59.8081 231.124 59.9655 231.045 60.1229C231.045 60.2802 230.966 60.4376 230.966 60.595C230.888 60.8311 230.809 61.1459 230.652 61.6181C230.494 62.0902 230.416 62.5624 230.258 63.0346C230.101 63.5854 229.943 64.1363 229.786 64.7659C230.022 64.6872 230.337 64.6085 230.652 64.4511C230.966 64.3724 231.439 64.1363 231.99 63.8215C232.934 63.2707 233.642 62.7198 234.193 62.1689C234.665 61.6181 234.901 61.1459 234.901 60.7524C234.901 60.3589 234.823 60.1229 234.665 60.1229C234.508 60.0442 234.35 60.0442 234.193 60.0442C234.114 60.0442 234.036 60.0442 234.036 59.9655C234.036 59.8868 234.114 59.8868 234.193 59.8081C234.35 59.8081 234.586 59.7294 234.98 59.6507C235.373 59.572 235.609 59.572 235.846 59.572C236.082 59.572 236.239 59.572 236.396 59.6507C236.554 59.7294 236.633 59.8081 236.633 60.0442C236.633 60.3589 236.554 60.6737 236.318 61.0672C236.082 61.4607 235.767 61.8541 235.137 62.405C234.98 62.5624 234.744 62.7985 234.429 62.9559C234.114 63.192 233.8 63.3493 233.485 63.5854C233.17 63.8215 232.776 63.9789 232.462 64.215C232.068 64.4511 231.753 64.6085 231.439 64.6872C231.675 64.7659 231.911 65.0019 232.147 65.3167C232.383 65.6315 232.776 66.2611 233.17 67.048C233.485 67.5989 233.721 68.071 233.957 68.4645C234.114 68.7793 234.35 69.0941 234.508 69.4088C234.744 69.7236 234.901 69.9597 234.98 70.0384C235.059 70.1958 235.216 70.2745 235.295 70.3532C235.452 70.4319 235.531 70.5106 235.688 70.5106C235.846 70.5106 235.846 70.5893 235.846 70.668C235.846 70.7467 235.846 70.8254 235.767 70.904C235.688 70.9827 235.609 71.1401 235.452 71.2188C235.295 71.2975 235.137 71.3762 234.98 71.4549C234.823 71.5336 234.586 71.5336 234.429 71.5336C234.193 71.5336 233.957 71.4549 233.721 71.2188C233.485 71.0614 233.249 70.7467 233.013 70.4319C232.776 70.1171 232.619 69.7236 232.383 69.4088C232.147 69.0154 231.911 68.5432 231.596 67.9136C231.124 67.1267 230.809 66.4971 230.573 66.1037C230.337 65.7102 230.022 65.3954 229.786 65.238H229.55L228.212 69.9597C228.133 70.2745 227.976 70.5106 227.819 70.668C227.661 70.8254 227.425 70.9827 227.11 71.1401C226.953 71.2188 226.796 71.2975 226.638 71.2975C226.481 71.2975 226.402 71.3762 226.324 71.3762C226.245 71.3762 226.166 71.3762 226.087 71.3762L228.684 61.7755C228.763 61.5394 228.842 61.3033 228.842 61.2246Z" fill="white"/>
<path d="M245.45 69.3299C245.45 69.4873 245.529 69.566 245.607 69.6447C245.686 69.6447 245.843 69.7234 245.922 69.7234C246.08 69.7234 246.158 69.7234 246.237 69.6447C246.316 69.6447 246.394 69.566 246.473 69.4873C246.473 69.4873 246.552 69.4086 246.63 69.4086C246.709 69.4086 246.709 69.3299 246.788 69.3299C246.866 69.3299 246.866 69.3299 246.866 69.4086C246.866 69.4873 246.866 69.566 246.788 69.6447C246.473 69.9595 246.08 70.2743 245.529 70.6677C245.214 70.9038 244.978 71.0612 244.742 71.1399C244.506 71.2186 244.27 71.2973 244.112 71.2973C243.955 71.2973 243.797 71.2186 243.64 71.1399C243.483 71.0612 243.404 70.9038 243.404 70.5891C243.404 70.4317 243.404 70.2743 243.483 70.1169L245.843 61.6178C245.843 61.3818 245.843 61.1457 245.843 60.9096C245.765 60.6735 245.529 60.5161 245.135 60.5161C244.899 60.5161 244.663 60.5948 244.348 60.8309C244.033 61.067 243.719 61.3031 243.325 61.6178C242.932 61.9326 242.538 62.3261 242.145 62.7196C241.751 63.113 241.358 63.5852 241.043 63.9787C240.807 64.2935 240.492 64.6869 240.177 65.1591C239.863 65.6313 239.627 66.1034 239.39 66.5756C239.154 67.0478 238.997 67.52 238.84 68.0708C238.682 68.543 238.604 69.0152 238.604 69.4086C238.604 69.6447 238.604 69.8021 238.682 69.8808C238.761 69.9595 238.84 70.0382 238.918 70.0382C238.997 70.0382 239.076 70.0382 239.076 70.0382C239.076 70.0382 239.154 70.0382 239.233 69.9595C239.154 70.1169 239.076 70.2743 238.918 70.4317C238.761 70.5891 238.604 70.7464 238.446 70.9038C238.289 71.0612 238.131 71.1399 237.895 71.2186C237.738 71.2973 237.581 71.376 237.423 71.376C237.187 71.376 236.951 71.2973 236.872 71.1399C236.715 70.9825 236.715 70.6677 236.715 70.1169C236.715 69.6447 236.872 69.0939 237.108 68.4643C237.344 67.9134 237.659 67.2839 238.053 66.6543C238.446 66.0248 238.84 65.3952 239.39 64.7656C239.863 64.1361 240.414 63.5852 240.964 62.9557C241.437 62.4835 241.909 62.0113 242.381 61.5391C242.853 61.067 243.404 60.6735 243.876 60.3587C244.348 60.0439 244.82 59.7292 245.293 59.4931C245.765 59.257 246.158 59.1783 246.552 59.0996C246.866 59.0996 247.103 59.0996 247.339 59.1783C247.496 59.257 247.653 59.3357 247.732 59.4931C247.811 59.6505 247.89 59.8079 247.89 59.9653C247.89 60.1226 247.89 60.3587 247.811 60.5161L245.686 68.2282C245.607 68.4643 245.529 68.7004 245.529 68.7791C245.529 69.0152 245.45 69.1725 245.45 69.3299Z" fill="white"/>
<path d="M257.407 69.0941C257.407 69.2515 257.407 69.4088 257.485 69.4875C257.564 69.6449 257.643 69.7236 257.8 69.7236C257.957 69.7236 258.036 69.7236 258.115 69.6449C258.194 69.6449 258.272 69.5662 258.351 69.4875C258.351 69.4875 258.43 69.4089 258.508 69.4089C258.587 69.4089 258.587 69.3302 258.666 69.3302C258.744 69.3302 258.744 69.3302 258.744 69.4089C258.744 69.4875 258.744 69.5662 258.666 69.6449C258.351 69.9597 257.957 70.2745 257.407 70.668C257.092 70.9041 256.856 71.0614 256.62 71.1401C256.384 71.2188 256.147 71.2975 255.99 71.2975C255.833 71.2975 255.675 71.2188 255.597 71.0614C255.518 70.9041 255.439 70.668 255.439 70.3532C255.439 70.1958 255.518 69.881 255.597 69.4875C255.675 69.0941 255.833 68.7006 255.911 68.3071C256.069 67.835 256.226 67.3628 256.384 66.8119H256.305C256.147 67.048 255.833 67.3628 255.361 67.835C254.888 68.3071 254.416 68.858 253.865 69.3302C253.314 69.8023 252.764 70.2745 252.213 70.668C251.662 71.0614 251.111 71.2188 250.639 71.2188C250.167 71.2188 249.852 70.9827 249.537 70.5893C249.222 70.1958 249.065 69.5662 249.065 68.7006C249.065 67.4415 249.38 66.1824 249.931 64.9232C250.481 63.6641 251.268 62.5624 252.213 61.6181C252.921 60.8311 253.708 60.2803 254.652 59.8081C255.518 59.3359 256.384 59.1785 257.249 59.1785C257.721 59.1785 258.036 59.1785 258.351 59.2572C258.666 59.3359 258.902 59.4933 259.138 59.6507C259.374 59.4933 259.61 59.3359 259.846 59.2572C260.082 59.1785 260.318 59.1785 260.554 59.2572C260.476 59.572 260.318 59.8868 260.161 60.2803C260.004 60.595 259.925 60.9885 259.767 61.382C259.531 62.0115 259.295 62.7198 259.059 63.5854C258.823 64.3724 258.587 65.1593 258.351 65.8676C258.115 66.5758 257.957 67.2054 257.8 67.7563C257.485 68.5432 257.407 68.9367 257.407 69.0941ZM257.564 61.7755C257.564 61.4607 257.485 61.2246 257.407 61.0672C257.328 60.9098 257.171 60.7524 257.013 60.6737C256.856 60.595 256.698 60.5163 256.462 60.4376C256.305 60.4376 256.069 60.3589 255.99 60.3589C255.361 60.3589 254.731 60.5163 254.259 60.7524C253.787 61.0672 253.314 61.382 253 61.8542C252.528 62.405 252.213 62.9559 251.898 63.5854C251.583 64.215 251.426 64.7659 251.268 65.3167C251.111 65.8676 251.032 66.4185 250.954 66.8906C250.875 67.3628 250.875 67.7563 250.875 67.9923C250.875 68.5432 250.954 68.9367 251.111 69.2515C251.268 69.5662 251.504 69.7236 251.741 69.7236C252.055 69.7236 252.37 69.6449 252.764 69.4089C253.157 69.1728 253.551 68.9367 253.944 68.6219C254.338 68.3071 254.731 67.9136 255.124 67.4415C255.518 66.9693 255.833 66.5758 256.147 66.1037C256.305 65.7889 256.541 65.4741 256.698 65.0806C256.856 64.6872 257.013 64.2937 257.17 63.8215C257.328 63.428 257.407 63.0346 257.485 62.6411C257.485 62.3263 257.564 62.0115 257.564 61.7755Z" fill="white"/>
<path d="M271.03 59.7293C271.187 59.7293 271.345 59.7293 271.345 59.7293C271.345 59.808 271.266 59.8867 271.187 59.9654C271.109 60.0441 270.951 60.1228 270.715 60.2802C270.558 60.3589 270.322 60.5163 270.164 60.595C269.928 60.6736 269.771 60.7523 269.613 60.831C269.456 60.9097 269.299 60.9097 269.141 60.9097C268.826 60.9097 268.59 60.831 268.275 60.6736C267.961 60.5163 267.725 60.4376 267.489 60.4376C267.095 60.4376 266.702 60.5163 266.308 60.6736C265.915 60.831 265.442 61.2245 264.97 61.7754C264.656 62.1688 264.341 62.641 264.105 63.1132C263.869 63.5854 263.632 64.0575 263.475 64.5297C263.318 65.0019 263.16 65.474 263.082 65.8675C263.003 66.261 263.003 66.6545 263.003 66.9692C263.003 67.9136 263.16 68.7005 263.554 69.3301C263.869 69.9596 264.498 70.2744 265.442 70.2744C265.993 70.2744 266.544 70.1957 267.095 69.9596C267.646 69.7235 268.275 69.4088 268.984 68.9366C269.062 68.9366 269.141 68.8579 269.22 68.7792C269.299 68.7005 269.377 68.7005 269.456 68.7005C269.535 68.7005 269.535 68.7005 269.535 68.7792C269.535 68.8579 269.456 68.9366 269.377 69.094C269.062 69.4088 268.748 69.6448 268.354 69.9596C267.961 70.2744 267.567 70.5105 267.095 70.7466C266.623 70.9827 266.151 71.2187 265.6 71.3761C265.049 71.5335 264.498 71.6122 263.869 71.6122C262.924 71.6122 262.216 71.2974 261.744 70.6679C261.35 70.0383 261.114 69.2514 261.114 68.3857C261.114 67.6775 261.193 66.8905 261.429 66.1823C261.665 65.474 261.901 64.7658 262.295 64.1362C262.688 63.5067 263.082 62.8771 263.633 62.3262C264.105 61.7754 264.734 61.2245 265.285 60.831C265.757 60.5163 266.308 60.2015 266.938 59.8867C267.567 59.5719 268.197 59.4932 268.748 59.4932C269.062 59.4932 269.377 59.5719 269.771 59.7293C270.243 59.6506 270.636 59.7293 271.03 59.7293Z" fill="white"/>
<path d="M280.471 59.7293C280.628 59.7293 280.785 59.7293 280.785 59.7293C280.785 59.808 280.707 59.8867 280.628 59.9654C280.549 60.0441 280.392 60.1228 280.156 60.2801C279.999 60.3588 279.762 60.5162 279.605 60.5949C279.369 60.6736 279.212 60.7523 279.054 60.831C278.897 60.9097 278.739 60.9097 278.582 60.9097C278.267 60.9097 278.031 60.831 277.716 60.6736C277.402 60.5162 277.166 60.4375 276.929 60.4375C276.536 60.4375 276.143 60.5162 275.749 60.6736C275.356 60.831 274.883 61.2245 274.411 61.7753C274.096 62.1688 273.782 62.641 273.546 63.1132C273.31 63.5853 273.073 64.0575 272.916 64.5297C272.759 65.0018 272.601 65.474 272.523 65.8675C272.444 66.2609 272.444 66.6544 272.444 66.9692C272.444 67.9135 272.601 68.7005 272.995 69.33C273.309 69.9596 273.939 70.2744 274.883 70.2744C275.434 70.2744 275.985 70.1957 276.536 69.9596C277.087 69.7235 277.716 69.4087 278.425 68.9366C278.503 68.9366 278.582 68.8579 278.661 68.7792C278.739 68.7005 278.818 68.7005 278.897 68.7005C278.976 68.7005 278.976 68.7005 278.976 68.7792C278.976 68.8579 278.897 68.9366 278.818 69.094C278.503 69.4087 278.189 69.6448 277.795 69.9596C277.402 70.2744 277.008 70.5105 276.536 70.7465C276.064 70.9826 275.592 71.2187 275.041 71.3761C274.49 71.5335 273.939 71.6122 273.309 71.6122C272.365 71.6122 271.657 71.2974 271.185 70.6679C270.791 70.0383 270.555 69.2513 270.555 68.3857C270.555 67.6774 270.634 66.8905 270.87 66.1823C271.106 65.474 271.342 64.7657 271.736 64.1362C272.129 63.5066 272.523 62.8771 273.073 62.3262C273.546 61.7753 274.175 61.2245 274.726 60.831C275.198 60.5162 275.749 60.2014 276.379 59.8867C277.008 59.5719 277.638 59.4932 278.189 59.4932C278.503 59.4932 278.818 59.5719 279.212 59.7293C279.762 59.6506 280.156 59.7293 280.471 59.7293Z" fill="white"/>
<path d="M282.515 61.2245C282.515 60.9884 282.436 60.9097 282.2 60.9097C282.121 60.9097 281.964 60.9097 281.807 60.9884C281.649 61.0671 281.57 61.0671 281.492 61.0671C281.413 61.0671 281.413 61.0671 281.413 60.9884C281.413 60.9097 281.492 60.831 281.649 60.7524C281.807 60.6737 281.964 60.5163 282.279 60.2802C282.594 60.0441 282.908 59.808 283.38 59.6506C283.774 59.4932 284.089 59.3358 284.325 59.3358C284.561 59.3358 284.718 59.4145 284.718 59.6506C284.718 59.808 284.718 59.9654 284.64 60.1228C284.64 60.2802 284.561 60.4376 284.561 60.595C284.482 60.8311 284.404 61.1458 284.246 61.618C284.089 62.0902 284.01 62.5623 283.853 63.0345C283.695 63.5854 283.538 64.2149 283.38 64.8445C283.459 64.8445 283.617 64.8445 283.853 64.8445C284.089 64.8445 284.246 64.7658 284.482 64.7658C284.718 64.7658 284.954 64.6871 285.19 64.6871C285.427 64.6871 285.663 64.6084 285.899 64.5297C286.135 64.451 286.371 64.451 286.607 64.451C286.843 64.451 287.158 64.451 287.394 64.3723C287.63 64.3723 287.866 64.3723 288.102 64.3723C288.338 64.3723 288.496 64.3723 288.574 64.3723L289.597 60.831C289.755 60.595 289.833 60.4376 289.991 60.2802C290.148 60.1228 290.306 59.9654 290.542 59.8867C290.778 59.7293 290.935 59.6506 291.093 59.5719C291.25 59.4932 291.486 59.4932 291.643 59.4932L289.046 68.4644C289.046 68.5431 288.968 68.7005 288.968 68.8579C288.968 69.0153 288.889 69.094 288.889 69.1727C288.889 69.3301 288.889 69.4875 288.968 69.5662C289.047 69.7236 289.125 69.8023 289.283 69.8023C289.44 69.8023 289.519 69.8023 289.597 69.7236C289.676 69.7236 289.755 69.6449 289.833 69.5662C289.833 69.5662 289.912 69.4875 289.991 69.4875C290.07 69.4875 290.07 69.4088 290.148 69.4088C290.227 69.4088 290.227 69.4088 290.227 69.4875C290.227 69.5662 290.227 69.6449 290.148 69.7236C289.833 70.0383 289.44 70.3531 288.889 70.7466C288.574 70.9827 288.338 71.1401 288.102 71.2188C287.866 71.2975 287.63 71.3761 287.473 71.3761C287.079 71.3761 286.843 71.1401 286.843 70.5892C286.843 70.4318 286.922 70.0383 287.079 69.4088C287.237 68.8579 287.394 68.2284 287.63 67.5201C287.709 67.2053 287.787 66.8905 287.945 66.5758C288.023 66.261 288.102 66.0249 288.181 65.7888C288.26 65.474 288.338 65.238 288.417 65.0019C288.181 65.0806 287.945 65.0806 287.63 65.1593C287.394 65.238 287.158 65.238 286.843 65.3167C286.528 65.3953 286.213 65.474 285.899 65.5527C285.427 65.6314 284.954 65.7101 284.482 65.5527C284.01 65.474 283.617 65.3166 283.302 65.238L282.121 69.7236C281.964 70.2744 281.649 70.6679 281.098 70.904C280.862 70.9827 280.705 71.0614 280.626 71.0614C280.469 71.0614 280.39 71.0614 280.311 71.0614C280.233 71.0614 280.075 71.0614 279.997 70.9827L282.594 61.618C282.515 61.4606 282.515 61.3032 282.515 61.2245Z" fill="white"/>
<path d="M301.715 68.3069C301.715 68.3856 301.636 68.543 301.636 68.7004C301.636 68.8578 301.636 68.9365 301.636 69.0152C301.636 69.1725 301.636 69.3299 301.715 69.4086C301.794 69.566 301.872 69.6447 302.03 69.6447C302.187 69.6447 302.266 69.6447 302.345 69.566C302.423 69.566 302.502 69.4873 302.581 69.4086C302.581 69.4086 302.659 69.3299 302.738 69.3299C302.817 69.3299 302.817 69.2512 302.895 69.2512C302.974 69.2512 302.974 69.2512 302.974 69.3299C302.974 69.4086 302.974 69.4873 302.895 69.566C302.581 69.8808 302.187 70.1956 301.636 70.589C301.321 70.8251 301.085 70.9825 300.849 71.0612C300.613 71.1399 300.377 71.2186 300.22 71.2186C300.062 71.2186 299.905 71.1399 299.748 70.9825C299.669 70.8251 299.59 70.589 299.59 70.2743C299.59 70.1169 299.59 70.0382 299.59 69.8808C299.748 69.0938 299.984 68.3856 300.141 67.756C300.298 67.2052 300.456 66.6543 300.535 66.1821C300.692 65.71 300.771 65.3952 300.771 65.2378L300.692 65.1591C300.613 65.2378 300.377 65.4739 300.22 65.71C299.984 65.9461 299.748 66.2608 299.433 66.5756C299.118 66.8904 298.803 67.2052 298.488 67.5986C298.174 67.9921 297.859 68.3069 297.544 68.6217C297.308 68.9365 296.993 69.1725 296.6 69.4873C296.285 69.8021 295.892 70.1169 295.577 70.353C295.262 70.589 294.868 70.8251 294.554 70.9825C294.239 71.1399 293.924 71.2186 293.688 71.2186C293.295 71.2186 293.059 71.1399 292.901 70.9038C292.744 70.6677 292.665 70.5104 292.665 70.1956C292.665 69.9595 292.665 69.7234 292.744 69.4873C292.822 69.2512 292.822 69.0151 292.901 68.7791L294.947 61.4605C295.026 61.2244 295.026 61.067 295.026 60.9883C295.026 60.7522 294.947 60.6735 294.711 60.6735C294.632 60.6735 294.475 60.6735 294.318 60.7522C294.16 60.8309 294.082 60.8309 294.003 60.8309C293.924 60.8309 293.924 60.8309 293.924 60.7522C293.924 60.6735 294.003 60.5948 294.16 60.5161C294.318 60.4374 294.554 60.28 294.79 60.0439C295.105 59.8079 295.498 59.5718 295.892 59.4144C296.285 59.257 296.6 59.0996 296.836 59.0996C297.072 59.0996 297.229 59.1783 297.229 59.4144C297.229 59.5718 297.229 59.7292 297.151 59.8866C297.151 60.0439 297.072 60.2013 297.072 60.3587C297.072 60.4374 296.993 60.6735 296.915 60.9096C296.836 61.1457 296.757 61.5391 296.6 61.9326C296.521 62.3261 296.364 62.7196 296.206 63.1917C296.049 63.6639 295.97 64.1361 295.813 64.5296C295.498 65.6313 295.105 66.8117 294.79 68.0708C294.711 68.3856 294.632 68.6217 294.632 68.8578C294.632 69.3299 294.79 69.4873 295.105 69.4873C295.419 69.4873 295.813 69.2512 296.285 68.8578C296.757 68.3856 297.229 67.9134 297.78 67.2839C298.41 66.5756 299.039 65.8674 299.511 65.1591C300.062 64.4509 300.535 63.6639 301.007 62.877C301.243 62.4048 301.479 61.9326 301.636 61.6178C301.794 61.2244 302.03 60.8309 302.266 60.28C302.423 60.0439 302.738 59.8079 303.053 59.5718C303.368 59.3357 303.761 59.257 304.154 59.1783C303.997 59.7292 303.84 60.2013 303.604 60.7522C303.446 61.2244 303.289 61.6965 303.131 62.2474C302.974 62.7983 302.817 63.2704 302.659 63.6639C302.502 64.1361 302.345 64.6082 302.187 65.1591C302.03 65.71 301.951 66.1821 301.794 66.5756C301.951 67.3626 301.872 67.8347 301.715 68.3069Z" fill="white"/>
<path d="M306.993 61.2246C306.993 60.9885 306.914 60.9098 306.678 60.9098C306.599 60.9098 306.442 60.9098 306.363 60.9885C306.206 61.0672 306.127 61.0672 306.048 61.0672C305.97 61.0672 305.97 61.0672 305.97 60.9885C305.97 60.9098 306.048 60.8311 306.206 60.7524C306.363 60.6737 306.52 60.5163 306.835 60.2802C307.15 60.0441 307.543 59.808 307.937 59.6507C308.33 59.4933 308.645 59.3359 308.881 59.3359C309.117 59.3359 309.275 59.4146 309.275 59.6507C309.275 59.808 309.275 59.9654 309.196 60.1228C309.196 60.2802 309.117 60.4376 309.117 60.595C309.039 60.8311 308.96 61.1459 308.803 61.618C308.645 62.0902 308.566 62.5624 308.409 63.0345C308.252 63.5854 308.094 64.1363 307.937 64.7658C308.173 64.6871 308.488 64.6084 308.803 64.451C309.117 64.3723 309.59 64.1363 310.14 63.8215C311.085 63.2706 311.793 62.7198 312.344 62.1689C312.816 61.618 313.052 61.1459 313.052 60.7524C313.052 60.3589 312.973 60.1228 312.816 60.1228C312.659 60.0441 312.501 60.0441 312.344 60.0441C312.265 60.0441 312.186 60.0441 312.186 59.9654C312.186 59.8867 312.265 59.8867 312.344 59.8081C312.501 59.8081 312.737 59.7294 313.131 59.6507C313.524 59.572 313.76 59.572 313.996 59.572C314.233 59.572 314.39 59.572 314.547 59.6507C314.705 59.7294 314.783 59.808 314.783 60.0441C314.783 60.3589 314.705 60.6737 314.469 61.0672C314.233 61.4606 313.918 61.8541 313.288 62.405C313.131 62.5624 312.895 62.7985 312.58 62.9558C312.265 63.1919 311.95 63.3493 311.636 63.5854C311.321 63.8215 310.927 63.9789 310.613 64.215C310.219 64.451 309.904 64.6084 309.59 64.6871C309.826 64.7658 310.062 65.0019 310.298 65.3167C310.534 65.6315 310.927 66.261 311.321 67.048C311.636 67.5988 311.872 68.071 312.108 68.4645C312.265 68.7793 312.501 69.094 312.659 69.4088C312.895 69.7236 313.052 69.9597 313.131 70.0384C313.209 70.1958 313.367 70.2745 313.446 70.3532C313.603 70.4318 313.682 70.5105 313.839 70.5105C313.996 70.5105 313.996 70.5892 313.996 70.6679C313.996 70.7466 313.996 70.8253 313.918 70.904C313.839 70.9827 313.76 71.1401 313.603 71.2188C313.446 71.2975 313.288 71.3762 313.131 71.4549C312.973 71.5336 312.737 71.5336 312.58 71.5336C312.344 71.5336 312.108 71.4549 311.872 71.2188C311.636 71.0614 311.399 70.7466 311.163 70.4319C310.927 70.1171 310.77 69.7236 310.534 69.4088C310.298 69.0153 310.062 68.5432 309.747 67.9136C309.275 67.1267 308.96 66.4971 308.724 66.1036C308.488 65.7102 308.173 65.3954 307.937 65.238H307.701L306.363 69.9597C306.284 70.2745 306.127 70.5105 305.97 70.6679C305.812 70.8253 305.576 70.9827 305.261 71.1401C305.104 71.2188 304.947 71.2975 304.789 71.2975C304.632 71.2975 304.553 71.3762 304.474 71.3762C304.396 71.3762 304.317 71.3762 304.238 71.3762L306.835 61.7754C306.993 61.5393 306.993 61.3032 306.993 61.2246Z" fill="white"/>
<path d="M318.4 71.4549C317.535 71.4549 316.826 71.2188 316.354 70.668C315.803 70.1171 315.567 69.3302 315.567 68.3071C315.567 67.2841 315.803 66.2611 316.197 65.1593C316.59 64.0576 317.141 63.1133 317.85 62.2476C318.558 61.382 319.345 60.6737 320.289 60.0442C321.233 59.4933 322.178 59.1785 323.201 59.1785C324.145 59.1785 324.853 59.4146 325.326 59.9655C325.798 60.4376 326.112 61.2246 326.112 62.0902C326.112 62.9559 325.955 63.9789 325.562 65.0806C325.168 66.1824 324.617 67.2054 323.988 68.1497C323.279 69.0941 322.493 69.881 321.548 70.5106C320.525 71.1401 319.502 71.4549 318.4 71.4549ZM324.303 63.9002C324.303 63.428 324.303 63.0346 324.224 62.6411C324.145 62.2476 324.066 61.8542 323.83 61.5394C323.673 61.2246 323.358 60.9885 323.043 60.7524C322.729 60.595 322.335 60.4376 321.784 60.4376C321.155 60.4376 320.525 60.595 319.974 60.9885C319.423 61.382 318.951 61.8541 318.558 62.4837C318.164 63.1133 317.85 63.7428 317.613 64.5298C317.377 65.238 317.299 66.025 317.299 66.7332C317.299 67.7563 317.456 68.5432 317.85 69.1728C318.243 69.8023 318.873 70.1171 319.738 70.1171C320.446 70.1171 320.997 69.881 321.627 69.4875C322.178 69.0941 322.65 68.5432 323.043 67.9137C323.437 67.2841 323.752 66.5758 323.988 65.8676C324.224 65.238 324.303 64.5298 324.303 63.9002Z" fill="white"/>
<path d="M337.131 61.0668C337.131 61.539 336.973 62.0112 336.737 62.4046C336.501 62.7981 336.108 63.1129 335.714 63.4277C335.321 63.7424 334.927 63.9785 334.455 64.1359C333.983 64.2933 333.668 64.4507 333.353 64.5294V64.6081C333.747 64.6081 334.14 64.6081 334.534 64.6868C334.927 64.7655 335.242 64.8442 335.478 65.0016C335.714 65.1589 335.95 65.395 336.108 65.6311C336.265 65.8672 336.344 66.182 336.344 66.5755C336.344 67.9133 335.399 69.2511 333.589 70.4315C332.96 70.825 332.33 71.1398 331.701 71.2971C331.071 71.4545 330.52 71.5332 330.127 71.5332C329.812 71.5332 329.497 71.4545 329.182 71.3758C328.868 71.2971 328.553 71.1398 328.317 70.9037C328.081 70.6676 327.845 70.4315 327.687 70.038C327.53 69.6446 327.451 69.2511 327.451 68.6215C327.451 68.0707 327.53 67.5198 327.609 66.8902C327.687 66.2607 327.923 65.4737 328.317 64.5294C328.553 63.8998 328.868 63.2703 329.34 62.6407C329.733 62.0112 330.205 61.4603 330.756 60.9094C331.307 60.4373 331.937 59.9651 332.566 59.729C333.196 59.4142 333.904 59.2568 334.612 59.2568C334.927 59.2568 335.163 59.2568 335.478 59.3355C335.793 59.4142 336.029 59.4929 336.265 59.5716C336.501 59.729 336.737 59.8864 336.895 60.1225C337.052 60.4373 337.131 60.752 337.131 61.0668ZM335.321 61.4603C335.321 61.1455 335.242 60.9094 335.163 60.6733C335.085 60.516 335.006 60.3586 334.848 60.2012C334.691 60.1225 334.612 60.0438 334.455 60.0438C334.298 60.0438 334.14 59.9651 333.983 59.9651C333.668 59.9651 333.353 60.0438 333.117 60.2012C332.802 60.3586 332.566 60.516 332.33 60.752C332.094 60.9881 331.858 61.2242 331.622 61.4603C331.386 61.6964 331.229 62.0112 331.15 62.2472C330.992 62.4833 330.835 62.8768 330.678 63.2703C330.442 63.7424 330.284 64.2146 330.127 64.7655C329.969 65.3163 329.812 65.8672 329.655 66.4968C329.497 67.1263 329.419 67.6772 329.419 68.228C329.419 68.7002 329.497 69.0937 329.576 69.4085C329.733 69.7232 329.891 69.9593 330.048 70.1167C330.284 70.2741 330.442 70.4315 330.678 70.4315C330.914 70.5102 331.15 70.5102 331.386 70.5102C331.779 70.5102 332.094 70.4315 332.488 70.2741C332.881 70.1167 333.196 69.8806 333.432 69.5659C333.747 69.2511 333.983 68.8576 334.14 68.3854C334.298 67.9133 334.376 67.3624 334.376 66.7328C334.376 66.1033 334.14 65.7098 333.747 65.4737C333.275 65.2376 332.802 65.0803 332.33 65.0803C332.015 65.0803 331.779 65.0803 331.465 65.1589C331.229 65.2376 330.992 65.2376 330.914 65.2376C330.678 65.2376 330.599 65.1589 330.599 65.0016C330.599 64.8442 330.678 64.7655 330.756 64.6868C330.835 64.6081 330.914 64.6081 330.992 64.6081C331.307 64.6081 331.543 64.5294 331.779 64.5294C332.015 64.5294 332.173 64.4507 332.409 64.4507C332.802 64.372 333.117 64.2146 333.511 64.0572C333.825 63.8998 334.14 63.6637 334.455 63.4277C334.77 63.1916 335.006 62.8768 335.163 62.562C335.163 62.2472 335.321 61.8538 335.321 61.4603Z" fill="white"/>
<path d="M134.172 11.0175H138.028V33.7603L154.318 11.0175H157.938V40.528H154.082V17.7852L137.792 40.4493H134.172V11.0175ZM190.754 11.0175V40.528H186.819V27.3073H171.001V40.4493H167.066V11.0175H171.001V23.6873H186.819V11.0175H190.754ZM249.775 14.6374H239.151V40.4493H235.295V14.6374H224.671V10.9388H249.775V14.6374ZM264.254 11.0175H260.398L247.965 40.528H251.978L262.287 15.3457L272.596 40.528H276.688L264.254 11.0175ZM338.542 11.0175V40.528H334.608V27.3073H318.79V40.4493H314.855V11.0175H318.79V23.6873H334.608V11.0175H338.542ZM94.0377 18.1787C95.3755 15.8965 97.1855 14.1652 99.5463 12.9061C100.963 12.1192 102.537 11.5683 104.268 11.3322V15.1096C103.402 15.3457 102.537 15.6604 101.671 16.1326C99.9398 17.077 98.602 18.4148 97.6576 20.0674C96.7133 21.7199 96.1624 23.6086 96.1624 25.7334C96.1624 27.8581 96.6346 29.6681 97.6576 31.3994C98.602 33.052 99.9398 34.3898 101.671 35.3341C103.324 36.2785 105.212 36.7507 107.258 36.7507V11.0175H111.114C113.947 11.0175 116.544 11.647 118.827 12.9061C121.187 14.1652 122.997 15.9752 124.335 18.1787C125.673 20.4608 126.303 22.9791 126.303 25.7334C126.303 28.4877 125.673 31.0059 124.335 33.2881C122.997 35.5702 121.187 37.3015 118.827 38.5606C117.41 39.3476 115.915 39.8198 114.262 40.1345V36.3572C115.128 36.1211 115.915 35.8063 116.702 35.3341C118.433 34.3898 119.771 33.052 120.715 31.3994C121.66 29.7468 122.21 27.8581 122.21 25.7334C122.21 23.6086 121.738 21.7986 120.715 20.0674C119.771 18.4148 118.433 17.077 116.702 16.1326C115.049 15.1883 113.161 14.7161 111.114 14.7161V40.528H107.258C104.425 40.528 101.828 39.8984 99.5463 38.6393C97.1855 37.3802 95.3755 35.5702 94.0377 33.3668C92.6999 31.0846 92.0703 28.5664 92.0703 25.8121C92.0703 22.9791 92.6999 20.4608 94.0377 18.1787ZM305.963 18.0213C304.704 15.7391 302.972 13.9292 300.769 12.67C299.038 11.647 297.07 11.0175 295.024 10.7814V14.5587C296.362 14.7948 297.621 15.1883 298.801 15.8965C300.375 16.8409 301.713 18.2574 302.579 19.9887C303.523 21.7199 303.995 23.6086 303.995 25.8121C303.995 27.9368 303.523 29.9042 302.579 31.6355C301.635 33.3668 300.375 34.7046 298.801 35.7276C297.228 36.672 295.418 37.2228 293.372 37.2228C291.325 37.2228 289.516 36.7507 287.863 35.7276C286.21 34.7833 284.951 33.3668 284.007 31.6355C283.063 29.9042 282.59 28.0155 282.59 25.8121C282.59 23.6873 283.063 21.7199 284.007 19.9887C284.951 18.2574 286.21 16.9196 287.863 15.8965C289.043 15.1883 290.224 14.7948 291.562 14.5587V10.7814C289.516 11.0175 287.548 11.647 285.817 12.67C283.613 14.0079 281.882 15.8178 280.544 18.1C279.285 20.3821 278.656 22.9791 278.656 25.8121C278.656 28.6451 279.285 31.242 280.544 33.5242C281.803 35.8063 283.535 37.6163 285.817 38.9541C288.02 40.2919 290.539 40.9215 293.293 40.9215C296.047 40.9215 298.565 40.2919 300.769 38.9541C302.972 37.6163 304.704 35.885 305.963 33.6029C307.222 31.3207 307.851 28.7238 307.851 25.8908C307.851 22.9004 307.222 20.3034 305.963 18.0213ZM222.153 40.4493H226.245L213.732 10.9388H209.955L197.364 40.4493H201.377L203.581 35.0981H219.871L222.153 40.4493ZM205.076 31.7142L211.922 14.9522L218.69 31.7142H205.076Z" fill="white"/>
<path d="M45.6459 0H35.8877V71.2974H45.6459V0Z" fill="white"/>
<path d="M30.4549 56.503V67.5203H29.6679C13.2994 67.5203 0 53.2765 0 35.6489C0 18.0212 13.2994 3.77747 29.6679 3.77747H30.4549V14.7947H29.6679C18.9654 14.7947 10.2303 24.1594 10.2303 35.6489C10.2303 47.1383 18.9654 56.503 29.6679 56.503H30.4549ZM50.9942 56.503V67.5203H51.7812C68.1497 67.5203 81.4491 53.2765 81.4491 35.6489C81.4491 18.0212 68.1497 3.77747 51.7812 3.77747H50.9942V14.7947H51.7812C62.4837 14.7947 71.2188 24.1594 71.2188 35.6489C71.2188 47.1383 62.4837 56.503 51.7812 56.503H50.9942Z" fill="white"/>
</svg>
